<svg xmlns="http://www.w3.org/2000/svg" xmlns:xlink="http://www.w3.org/1999/xlink" width="500" zoomAndPan="magnify" viewBox="0 0 375 374.999991" height="500" preserveAspectRatio="xMidYMid meet" version="1.0"><defs><g/><clipPath id="4276bc576b"><path d="M 120 156 L 289 156 L 289 183 L 120 183 Z M 120 156 " clip-rule="nonzero"/></clipPath><clipPath id="883c4baf00"><path d="M 119.195312 155.59375 L 286.820312 144.371094 L 289.125 178.796875 L 121.5 190.015625 Z M 119.195312 155.59375 " clip-rule="nonzero"/></clipPath><clipPath id="aa4c22b9f2"><path d="M 121.503906 190.085938 L 289.128906 178.867188 L 286.824219 144.441406 L 119.199219 155.664062 Z M 121.503906 190.085938 " clip-rule="nonzero"/></clipPath></defs><g fill="#ffffff" fill-opacity="1"><g transform="translate(102.814062, 212.153482)"><g><path d="M 58.828125 -55.046875 C 59.765625 -50.359375 60.359375 -44.738281 60.609375 -38.1875 C 60.671875 -33.28125 60.285156 -28.101562 59.453125 -22.65625 C 58.617188 -17.21875 57.109375 -11.78125 54.921875 -6.34375 C 53.535156 -3.144531 51.914062 -0.0976562 50.0625 2.796875 C 48.21875 5.703125 46.035156 8.367188 43.515625 10.796875 C 41.566406 12.703125 39.410156 14.285156 37.046875 15.546875 C 34.441406 16.929688 31.628906 17.753906 28.609375 18.015625 C 25.585938 18.273438 22.609375 17.851562 19.671875 16.75 C 16.734375 15.65625 14.050781 13.765625 11.625 11.078125 C 9.425781 8.515625 7.617188 5.703125 6.203125 2.640625 C 2.992188 -4.429688 1.113281 -11.820312 0.5625 -19.53125 C 0.1875 -24.144531 0.285156 -28.71875 0.859375 -33.25 C 1.441406 -37.78125 2.566406 -42.238281 4.234375 -46.625 C 4.910156 -48.445312 5.703125 -50.210938 6.609375 -51.921875 C 7.160156 -52.941406 7.207031 -53.96875 6.75 -55 C 5.195312 -58.71875 4.269531 -62.59375 3.96875 -66.625 C 3.707031 -70.53125 4.289062 -74.207031 5.71875 -77.65625 C 7.15625 -81.101562 9.160156 -84.035156 11.734375 -86.453125 C 14.304688 -88.878906 17.191406 -90.515625 20.390625 -91.359375 C 28.171875 -93.367188 35.335938 -92.015625 41.890625 -87.296875 C 45.953125 -84.316406 49.175781 -80.59375 51.5625 -76.125 C 53.34375 -72.800781 54.8125 -69.378906 55.96875 -65.859375 C 57.132812 -62.335938 58.085938 -58.734375 58.828125 -55.046875 Z M 51.71875 -9.875 C 53.238281 -14.15625 54.335938 -18.492188 55.015625 -22.890625 C 55.691406 -27.285156 56.066406 -31.675781 56.140625 -36.0625 C 56.140625 -45.175781 54.894531 -54 52.40625 -62.53125 C 51.613281 -65.175781 50.6875 -67.765625 49.625 -70.296875 C 48.570312 -72.835938 47.28125 -75.28125 45.75 -77.625 C 44.363281 -79.789062 42.757812 -81.734375 40.9375 -83.453125 C 39.125 -85.179688 37.039062 -86.628906 34.6875 -87.796875 C 31.925781 -89.171875 29.171875 -89.847656 26.421875 -89.828125 C 23.671875 -89.816406 20.992188 -88.910156 18.390625 -87.109375 C 15.066406 -84.847656 12.566406 -82.113281 10.890625 -78.90625 C 9.210938 -75.707031 8.453125 -72.097656 8.609375 -68.078125 C 8.984375 -57.835938 13.035156 -49.304688 20.765625 -42.484375 C 23.242188 -40.296875 25.878906 -38.394531 28.671875 -36.78125 C 31.460938 -35.175781 34.441406 -33.9375 37.609375 -33.0625 C 37.742188 -33.007812 37.882812 -32.96875 38.03125 -32.9375 C 38.34375 -32.894531 38.632812 -32.816406 38.90625 -32.703125 C 39.1875 -32.597656 39.4375 -32.4375 39.65625 -32.21875 C 39.78125 -32.101562 39.863281 -31.957031 39.90625 -31.78125 C 39.957031 -31.613281 39.984375 -31.457031 39.984375 -31.3125 C 39.953125 -31.207031 39.890625 -31.078125 39.796875 -30.921875 C 39.703125 -30.773438 39.597656 -30.664062 39.484375 -30.59375 C 38.859375 -30.257812 38.234375 -30.242188 37.609375 -30.546875 C 36.585938 -31.015625 35.535156 -31.382812 34.453125 -31.65625 C 34.265625 -31.695312 34.101562 -31.734375 33.96875 -31.765625 C 24.394531 -34.335938 16.6875 -39.582031 10.84375 -47.5 C 10.757812 -47.625 10.679688 -47.742188 10.609375 -47.859375 C 10.492188 -48.117188 10.34375 -48.332031 10.15625 -48.5 C 9.96875 -48.664062 9.734375 -48.707031 9.453125 -48.625 C 9.222656 -48.59375 9.0625 -48.488281 8.96875 -48.3125 C 8.882812 -48.144531 8.816406 -47.953125 8.765625 -47.734375 C 8.722656 -47.578125 8.671875 -47.453125 8.609375 -47.359375 C 8.492188 -47.085938 8.398438 -46.804688 8.328125 -46.515625 C 8.296875 -46.398438 8.238281 -46.265625 8.15625 -46.109375 C 5.8125 -39.410156 4.601562 -32.695312 4.53125 -25.96875 C 4.457031 -19.25 5.425781 -12.503906 7.4375 -5.734375 C 8.132812 -3.316406 8.992188 -0.984375 10.015625 1.265625 C 11.035156 3.515625 12.273438 5.664062 13.734375 7.71875 C 15.441406 10.132812 17.566406 12.113281 20.109375 13.65625 C 23.765625 15.894531 27.597656 16.269531 31.609375 14.78125 C 33.929688 13.84375 36.054688 12.585938 37.984375 11.015625 C 39.847656 9.492188 41.523438 7.800781 43.015625 5.9375 C 44.910156 3.550781 46.578125 1.03125 48.015625 -1.625 C 49.453125 -4.28125 50.6875 -7.03125 51.71875 -9.875 Z M 51.71875 -9.875 "/></g></g></g><g fill="#ffffff" fill-opacity="1"><g transform="translate(166.920576, 212.153482)"><g><path d="M 18.328125 -11.828125 C 18.617188 -12.523438 18.929688 -12.875 19.265625 -12.875 C 19.609375 -12.875 19.722656 -12.523438 19.609375 -11.828125 C 19.046875 -10.109375 18.375 -8.457031 17.59375 -6.875 C 16.8125 -5.289062 15.753906 -3.867188 14.421875 -2.609375 C 13.410156 -1.597656 12.203125 -0.945312 10.796875 -0.65625 C 8.878906 -0.382812 7.296875 -0.613281 6.046875 -1.34375 C 4.804688 -2.070312 3.820312 -3.117188 3.09375 -4.484375 C 2.363281 -5.847656 1.820312 -7.335938 1.46875 -8.953125 C 1.113281 -10.566406 0.882812 -12.132812 0.78125 -13.65625 C 0.507812 -16.539062 0.3125 -20.328125 0.1875 -25.015625 C 0.0625 -29.703125 0.109375 -34.660156 0.328125 -39.890625 C 0.546875 -45.117188 1.054688 -49.96875 1.859375 -54.4375 C 2.671875 -58.90625 3.851562 -62.367188 5.40625 -64.828125 C 6.300781 -66.023438 7.34375 -66.628906 8.53125 -66.640625 C 9.726562 -66.660156 10.796875 -66.113281 11.734375 -65 C 12.359375 -64.132812 12.832031 -63.21875 13.15625 -62.25 C 13.476562 -61.289062 13.6875 -60.3125 13.78125 -59.3125 C 14.125 -55.875 14.082031 -52.242188 13.65625 -48.421875 C 13.238281 -44.609375 12.570312 -40.535156 11.65625 -36.203125 C 10.738281 -31.867188 9.644531 -28.050781 8.375 -24.75 C 7.101562 -21.457031 6.046875 -18.84375 5.203125 -16.90625 C 4.742188 -16.132812 4.578125 -14.957031 4.703125 -13.375 C 4.847656 -11.664062 5.171875 -9.878906 5.671875 -8.015625 C 6.171875 -6.160156 6.867188 -4.691406 7.765625 -3.609375 C 8.617188 -2.710938 9.566406 -2.429688 10.609375 -2.765625 C 11.660156 -3.109375 12.707031 -3.820312 13.75 -4.90625 C 14.789062 -5.988281 15.707031 -7.164062 16.5 -8.4375 C 17.300781 -9.71875 17.910156 -10.847656 18.328125 -11.828125 Z M 4.796875 -37.8125 C 4.691406 -36.6875 4.59375 -34.992188 4.5 -32.734375 C 4.414062 -30.484375 4.328125 -28.1875 4.234375 -25.84375 C 4.171875 -23.238281 4.097656 -21.207031 4.015625 -19.75 C 4.835938 -21.613281 5.800781 -24.320312 6.90625 -27.875 C 8.007812 -31.4375 9.015625 -35.628906 9.921875 -40.453125 C 10.828125 -45.273438 11.414062 -50.492188 11.6875 -56.109375 C 11.53125 -59.398438 11.132812 -61.628906 10.5 -62.796875 C 9.863281 -63.960938 9.171875 -64.0625 8.421875 -63.09375 C 7.679688 -62.132812 7.09375 -60.101562 6.65625 -57 C 5.976562 -51.875 5.453125 -46.738281 5.078125 -41.59375 C 4.972656 -40.320312 4.878906 -39.0625 4.796875 -37.8125 Z M 4.796875 -37.8125 "/></g></g></g><g fill="#ffffff" fill-opacity="1"><g transform="translate(184.971959, 212.153482)"><g><path d="M 13.171875 -10.3125 C 12.648438 -9.226562 11.757812 -8.023438 10.5 -6.703125 C 9.238281 -5.378906 7.804688 -4.539062 6.203125 -4.1875 C 4.609375 -3.832031 3.082031 -4.382812 1.625 -5.84375 C 1.0625 -6.488281 0.648438 -7.226562 0.390625 -8.0625 C 0.128906 -8.894531 0.0351562 -9.71875 0.109375 -10.53125 C 0.109375 -10.757812 0.109375 -11.039062 0.109375 -11.375 C 0.109375 -12.238281 0.144531 -13.238281 0.21875 -14.375 C 0.289062 -15.507812 0.457031 -16.53125 0.71875 -17.4375 C 0.988281 -18.351562 1.398438 -18.90625 1.953125 -19.09375 C 3.566406 -19.5 4.441406 -18.941406 4.578125 -17.421875 C 4.578125 -16.929688 4.554688 -16.441406 4.515625 -15.953125 C 4.484375 -15.691406 4.46875 -15.453125 4.46875 -15.234375 C 4.4375 -14.523438 4.40625 -13.816406 4.375 -13.109375 C 4.375 -12.546875 4.347656 -11.984375 4.296875 -11.421875 C 4.253906 -8.972656 4.800781 -7.515625 5.9375 -7.046875 C 7.070312 -6.578125 8.367188 -7.070312 9.828125 -8.53125 C 11.285156 -9.988281 12.238281 -11.195312 12.6875 -12.15625 C 13.132812 -13.125 13.457031 -13.328125 13.65625 -12.765625 C 13.863281 -12.210938 13.703125 -11.394531 13.171875 -10.3125 Z M 4.234375 -24.328125 C 4.015625 -24.140625 3.75 -24.019531 3.4375 -23.96875 C 3.125 -23.914062 2.847656 -23.941406 2.609375 -24.046875 C 2.429688 -24.203125 2.316406 -24.398438 2.265625 -24.640625 C 2.210938 -24.890625 2.1875 -25.179688 2.1875 -25.515625 C 2.1875 -25.585938 2.203125 -25.65625 2.234375 -25.71875 C 2.265625 -26.019531 2.34375 -26.328125 2.46875 -26.640625 C 2.800781 -27.453125 3.503906 -27.820312 4.578125 -27.75 C 4.941406 -27.695312 5.226562 -27.546875 5.4375 -27.296875 C 5.65625 -27.046875 5.707031 -26.75 5.59375 -26.40625 C 5.332031 -25.570312 4.878906 -24.878906 4.234375 -24.328125 Z M 4.234375 -24.328125 "/></g></g></g><g fill="#ffffff" fill-opacity="1"><g transform="translate(197.437824, 212.153482)"><g><path d="M 18.765625 -13.28125 C 20.035156 -13.613281 20.546875 -13.59375 20.296875 -13.21875 C 20.054688 -12.851562 19.234375 -12.484375 17.828125 -12.109375 C 16.773438 -11.835938 15.867188 -11.703125 15.109375 -11.703125 C 14.347656 -11.703125 13.65625 -11.945312 13.03125 -12.4375 C 12.875 -11.914062 12.71875 -11.410156 12.5625 -10.921875 C 12.257812 -9.921875 11.96875 -8.972656 11.6875 -8.078125 C 11.3125 -6.773438 10.769531 -5.546875 10.0625 -4.390625 C 9.46875 -3.429688 8.679688 -2.78125 7.703125 -2.4375 C 6.734375 -2.101562 5.78125 -2.113281 4.84375 -2.46875 C 3.914062 -2.820312 3.15625 -3.539062 2.5625 -4.625 C 1.820312 -6.175781 1.320312 -7.804688 1.0625 -9.515625 C 0.507812 -12.054688 0.171875 -14.628906 0.046875 -17.234375 C 0.015625 -17.828125 0.0351562 -18.40625 0.109375 -18.96875 C 0.222656 -19.707031 0.6875 -20.078125 1.5 -20.078125 C 2.101562 -20.046875 2.46875 -19.6875 2.59375 -19 C 2.726562 -18.320312 2.796875 -17.625 2.796875 -16.90625 C 2.796875 -16.632812 2.8125 -16.40625 2.84375 -16.21875 C 2.84375 -15.96875 2.925781 -15.125 3.09375 -13.6875 C 3.269531 -12.257812 3.523438 -10.734375 3.859375 -9.109375 C 4.203125 -7.484375 4.613281 -6.242188 5.09375 -5.390625 C 5.570312 -4.535156 6.144531 -4.554688 6.8125 -5.453125 C 7.445312 -6.421875 7.894531 -7.460938 8.15625 -8.578125 C 8.789062 -10.816406 9.390625 -13.050781 9.953125 -15.28125 C 10.171875 -16.332031 10.59375 -17.28125 11.21875 -18.125 C 11.894531 -18.957031 12.773438 -19.160156 13.859375 -18.734375 C 14.117188 -18.671875 14.320312 -18.546875 14.46875 -18.359375 C 14.625 -18.171875 14.675781 -17.96875 14.625 -17.75 C 14.59375 -17.476562 14.539062 -17.195312 14.46875 -16.90625 C 14.28125 -16.351562 14.140625 -15.796875 14.046875 -15.234375 C 13.960938 -14.671875 13.992188 -14.238281 14.140625 -13.9375 C 14.398438 -13.5625 15.007812 -13.300781 15.96875 -13.15625 C 16.9375 -13.019531 17.867188 -13.0625 18.765625 -13.28125 Z M 18.765625 -13.28125 "/></g></g></g><g fill="#ffffff" fill-opacity="1"><g transform="translate(216.250868, 212.153482)"><g><path d="M 13.171875 -10.3125 C 12.648438 -9.226562 11.757812 -8.023438 10.5 -6.703125 C 9.238281 -5.378906 7.804688 -4.539062 6.203125 -4.1875 C 4.609375 -3.832031 3.082031 -4.382812 1.625 -5.84375 C 1.0625 -6.488281 0.648438 -7.226562 0.390625 -8.0625 C 0.128906 -8.894531 0.0351562 -9.71875 0.109375 -10.53125 C 0.109375 -10.757812 0.109375 -11.039062 0.109375 -11.375 C 0.109375 -12.238281 0.144531 -13.238281 0.21875 -14.375 C 0.289062 -15.507812 0.457031 -16.53125 0.71875 -17.4375 C 0.988281 -18.351562 1.398438 -18.90625 1.953125 -19.09375 C 3.566406 -19.5 4.441406 -18.941406 4.578125 -17.421875 C 4.578125 -16.929688 4.554688 -16.441406 4.515625 -15.953125 C 4.484375 -15.691406 4.46875 -15.453125 4.46875 -15.234375 C 4.4375 -14.523438 4.40625 -13.816406 4.375 -13.109375 C 4.375 -12.546875 4.347656 -11.984375 4.296875 -11.421875 C 4.253906 -8.972656 4.800781 -7.515625 5.9375 -7.046875 C 7.070312 -6.578125 8.367188 -7.070312 9.828125 -8.53125 C 11.285156 -9.988281 12.238281 -11.195312 12.6875 -12.15625 C 13.132812 -13.125 13.457031 -13.328125 13.65625 -12.765625 C 13.863281 -12.210938 13.703125 -11.394531 13.171875 -10.3125 Z M 4.234375 -24.328125 C 4.015625 -24.140625 3.75 -24.019531 3.4375 -23.96875 C 3.125 -23.914062 2.847656 -23.941406 2.609375 -24.046875 C 2.429688 -24.203125 2.316406 -24.398438 2.265625 -24.640625 C 2.210938 -24.890625 2.1875 -25.179688 2.1875 -25.515625 C 2.1875 -25.585938 2.203125 -25.65625 2.234375 -25.71875 C 2.265625 -26.019531 2.34375 -26.328125 2.46875 -26.640625 C 2.800781 -27.453125 3.503906 -27.820312 4.578125 -27.75 C 4.941406 -27.695312 5.226562 -27.546875 5.4375 -27.296875 C 5.65625 -27.046875 5.707031 -26.75 5.59375 -26.40625 C 5.332031 -25.570312 4.878906 -24.878906 4.234375 -24.328125 Z M 4.234375 -24.328125 "/></g></g></g><g fill="#ffffff" fill-opacity="1"><g transform="translate(228.716734, 212.153482)"><g><path d="M 28.71875 -13.046875 C 28.257812 -11.628906 27.335938 -10 25.953125 -8.15625 C 24.578125 -6.320312 22.859375 -5.140625 20.796875 -4.609375 C 18.734375 -4.085938 16.945312 -4.160156 15.4375 -4.828125 C 13.925781 -5.503906 13.097656 -7.296875 12.953125 -10.203125 C 11.242188 -6.890625 9.613281 -4.765625 8.0625 -3.828125 C 6.507812 -2.898438 4.894531 -2.546875 3.21875 -2.765625 C 1.320312 -3.066406 0.0390625 -3.800781 -0.625 -4.96875 C -1.289062 -6.144531 -1.515625 -7.5 -1.296875 -9.03125 C -1.078125 -10.5625 -0.609375 -12.03125 0.109375 -13.4375 C 0.660156 -14.476562 1.429688 -15.445312 2.421875 -16.34375 C 3.410156 -17.25 4.445312 -17.953125 5.53125 -18.453125 C 6.875 -19.128906 8.222656 -19.453125 9.578125 -19.421875 C 10.929688 -19.390625 12.378906 -18.941406 13.921875 -18.078125 C 13.953125 -18.046875 13.96875 -18.082031 13.96875 -18.1875 C 13.96875 -18.332031 14.003906 -18.519531 14.078125 -18.75 C 14.148438 -18.976562 14.28125 -19.160156 14.46875 -19.296875 C 14.976562 -19.671875 15.578125 -19.859375 16.265625 -19.859375 C 16.960938 -19.859375 17.5 -19.507812 17.875 -18.8125 C 17.945312 -17.914062 17.851562 -16.773438 17.59375 -15.390625 C 17.039062 -12.335938 17.039062 -10.144531 17.59375 -8.8125 C 18.15625 -7.476562 19.140625 -6.851562 20.546875 -6.9375 C 21.960938 -7.03125 23.796875 -8.425781 26.046875 -11.125 C 28.296875 -13.832031 29.1875 -14.472656 28.71875 -13.046875 Z M 3.734375 -5.890625 C 4.515625 -5.328125 5.40625 -5.398438 6.40625 -6.109375 C 7.414062 -6.828125 8.382812 -7.835938 9.3125 -9.140625 C 10.25 -10.441406 11.035156 -11.742188 11.671875 -13.046875 C 12.304688 -14.347656 12.65625 -15.316406 12.71875 -15.953125 C 10.820312 -16.960938 9.195312 -17.132812 7.84375 -16.46875 C 6.488281 -15.800781 5.410156 -14.707031 4.609375 -13.1875 C 3.804688 -11.675781 3.328125 -10.203125 3.171875 -8.765625 C 3.023438 -7.335938 3.210938 -6.378906 3.734375 -5.890625 Z M 3.734375 -5.890625 "/></g></g></g><g clip-path="url(#4276bc576b)"><g clip-path="url(#883c4baf00)"><g clip-path="url(#aa4c22b9f2)"><path fill="#ffffff" d="M 122.574219 168.832031 C 122.167969 168.402344 121.496094 168.378906 121.0625 168.785156 C 120.632812 169.1875 120.609375 169.863281 121.015625 170.296875 C 123.53125 172.984375 125.75 175.039062 128.113281 176.679688 L 128.183594 176.722656 C 130.539062 178.351562 133.015625 179.550781 136.035156 180.527344 C 155.394531 186.777344 180.945312 178.375 205.855469 170.179688 C 240.480469 158.789062 273.847656 147.8125 286.050781 178.191406 C 286.269531 178.738281 286.894531 179.007812 287.441406 178.789062 C 287.992188 178.570312 288.257812 177.945312 288.039062 177.398438 C 275.085938 145.160156 240.789062 156.441406 205.191406 168.152344 C 180.605469 176.242188 155.386719 184.539062 136.683594 178.5 C 133.871094 177.589844 131.570312 176.476562 129.390625 174.972656 L 129.332031 174.925781 C 127.117188 173.390625 125 171.425781 122.578125 168.835938 Z M 122.574219 168.832031 " fill-opacity="1" fill-rule="evenodd"/></g></g></g><g fill="#ffffff" fill-opacity="1"><g transform="translate(169.88346, 227.353521)"><g><path d="M 0.296875 -7 L 1.09375 -7 L 2.953125 -1.15625 L 4.84375 -7 L 5.546875 -7 L 7.453125 -1.15625 L 9.296875 -7 L 10.09375 -7 L 7.796875 0 L 7.046875 0 L 5.203125 -5.84375 L 3.34375 0 L 2.59375 0 Z M 0.296875 -7 "/></g></g></g><g fill="#ffffff" fill-opacity="1"><g transform="translate(186.679395, 227.353521)"><g><path d="M 1.046875 -7 L 1.796875 -7 L 1.796875 0 L 1.046875 0 Z M 1.046875 -7 "/></g></g></g><g fill="#ffffff" fill-opacity="1"><g transform="translate(195.928306, 227.353521)"><g><path d="M 1.046875 -7 L 1.796875 -7 L 1.796875 -0.703125 L 5.40625 -0.703125 L 5.40625 0 L 1.046875 0 Z M 1.046875 -7 "/></g></g></g><g fill="#ffffff" fill-opacity="1"><g transform="translate(207.926134, 227.353521)"><g><path d="M 2.796875 0.09375 C 2.398438 0.09375 2.050781 0.0390625 1.75 -0.0625 C 1.457031 -0.164062 1.210938 -0.285156 1.015625 -0.421875 C 0.796875 -0.578125 0.609375 -0.753906 0.453125 -0.953125 L 0.90625 -1.453125 C 1.03125 -1.285156 1.179688 -1.144531 1.359375 -1.03125 C 1.515625 -0.914062 1.710938 -0.8125 1.953125 -0.71875 C 2.191406 -0.632812 2.472656 -0.59375 2.796875 -0.59375 C 3.328125 -0.59375 3.726562 -0.710938 4 -0.953125 C 4.269531 -1.203125 4.40625 -1.519531 4.40625 -1.90625 C 4.40625 -2.125 4.347656 -2.304688 4.234375 -2.453125 C 4.117188 -2.597656 3.972656 -2.71875 3.796875 -2.8125 C 3.628906 -2.914062 3.429688 -3.003906 3.203125 -3.078125 C 2.972656 -3.148438 2.738281 -3.222656 2.5 -3.296875 C 2.257812 -3.367188 2.023438 -3.445312 1.796875 -3.53125 C 1.566406 -3.625 1.363281 -3.738281 1.1875 -3.875 C 1.019531 -4.019531 0.878906 -4.195312 0.765625 -4.40625 C 0.648438 -4.625 0.59375 -4.890625 0.59375 -5.203125 C 0.59375 -5.453125 0.644531 -5.691406 0.75 -5.921875 C 0.851562 -6.148438 1.003906 -6.351562 1.203125 -6.53125 C 1.398438 -6.707031 1.632812 -6.84375 1.90625 -6.9375 C 2.1875 -7.039062 2.5 -7.09375 2.84375 -7.09375 C 3.1875 -7.09375 3.484375 -7.046875 3.734375 -6.953125 C 3.992188 -6.859375 4.207031 -6.757812 4.375 -6.65625 C 4.582031 -6.519531 4.757812 -6.367188 4.90625 -6.203125 L 4.40625 -5.703125 C 4.289062 -5.828125 4.160156 -5.941406 4.015625 -6.046875 C 3.878906 -6.140625 3.710938 -6.222656 3.515625 -6.296875 C 3.328125 -6.367188 3.101562 -6.40625 2.84375 -6.40625 C 2.601562 -6.40625 2.390625 -6.367188 2.203125 -6.296875 C 2.023438 -6.234375 1.867188 -6.144531 1.734375 -6.03125 C 1.609375 -5.925781 1.507812 -5.800781 1.4375 -5.65625 C 1.375 -5.507812 1.34375 -5.359375 1.34375 -5.203125 C 1.34375 -4.898438 1.4375 -4.664062 1.625 -4.5 C 1.8125 -4.34375 2.046875 -4.207031 2.328125 -4.09375 C 2.617188 -3.988281 2.925781 -3.894531 3.25 -3.8125 C 3.570312 -3.726562 3.875 -3.613281 4.15625 -3.46875 C 4.445312 -3.320312 4.6875 -3.125 4.875 -2.875 C 5.0625 -2.632812 5.15625 -2.3125 5.15625 -1.90625 C 5.15625 -1.613281 5.101562 -1.34375 5 -1.09375 C 4.894531 -0.851562 4.738281 -0.644531 4.53125 -0.46875 C 4.332031 -0.289062 4.085938 -0.148438 3.796875 -0.046875 C 3.503906 0.046875 3.171875 0.09375 2.796875 0.09375 Z M 2.796875 0.09375 "/></g></g></g><g fill="#ffffff" fill-opacity="1"><g transform="translate(219.973938, 227.353521)"><g><path d="M 4.203125 0.09375 C 3.703125 0.09375 3.234375 0.00390625 2.796875 -0.171875 C 2.359375 -0.359375 1.972656 -0.613281 1.640625 -0.9375 C 1.316406 -1.269531 1.0625 -1.65625 0.875 -2.09375 C 0.6875 -2.53125 0.59375 -3 0.59375 -3.5 C 0.59375 -4 0.6875 -4.46875 0.875 -4.90625 C 1.0625 -5.34375 1.316406 -5.722656 1.640625 -6.046875 C 1.972656 -6.378906 2.359375 -6.632812 2.796875 -6.8125 C 3.234375 -7 3.703125 -7.09375 4.203125 -7.09375 C 4.703125 -7.09375 5.171875 -7 5.609375 -6.8125 C 6.046875 -6.632812 6.425781 -6.378906 6.75 -6.046875 C 7.070312 -5.722656 7.328125 -5.34375 7.515625 -4.90625 C 7.703125 -4.46875 7.796875 -4 7.796875 -3.5 C 7.796875 -3 7.703125 -2.53125 7.515625 -2.09375 C 7.328125 -1.65625 7.070312 -1.269531 6.75 -0.9375 C 6.425781 -0.613281 6.046875 -0.359375 5.609375 -0.171875 C 5.171875 0.00390625 4.703125 0.09375 4.203125 0.09375 Z M 4.203125 -0.59375 C 4.597656 -0.59375 4.96875 -0.664062 5.3125 -0.8125 C 5.664062 -0.96875 5.96875 -1.171875 6.21875 -1.421875 C 6.476562 -1.679688 6.679688 -1.988281 6.828125 -2.34375 C 6.972656 -2.695312 7.046875 -3.082031 7.046875 -3.5 C 7.046875 -3.914062 6.972656 -4.300781 6.828125 -4.65625 C 6.679688 -5.007812 6.476562 -5.3125 6.21875 -5.5625 C 5.96875 -5.820312 5.664062 -6.023438 5.3125 -6.171875 C 4.96875 -6.328125 4.597656 -6.40625 4.203125 -6.40625 C 3.796875 -6.40625 3.421875 -6.328125 3.078125 -6.171875 C 2.734375 -6.023438 2.429688 -5.820312 2.171875 -5.5625 C 1.921875 -5.3125 1.71875 -5.007812 1.5625 -4.65625 C 1.414062 -4.300781 1.34375 -3.914062 1.34375 -3.5 C 1.34375 -3.082031 1.414062 -2.695312 1.5625 -2.34375 C 1.71875 -1.988281 1.921875 -1.679688 2.171875 -1.421875 C 2.429688 -1.171875 2.734375 -0.96875 3.078125 -0.8125 C 3.421875 -0.664062 3.796875 -0.59375 4.203125 -0.59375 Z M 4.203125 -0.59375 "/></g></g></g><g fill="#ffffff" fill-opacity="1"><g transform="translate(234.770655, 227.353521)"><g><path d="M 1.046875 -7 L 1.703125 -7 L 6 -1.34375 L 6 -7 L 6.75 -7 L 6.75 0 L 6.09375 0 L 1.796875 -5.65625 L 1.796875 0 L 1.046875 0 Z M 1.046875 -7 "/></g></g></g></svg>