<svg xmlns="http://www.w3.org/2000/svg" xmlns:xlink="http://www.w3.org/1999/xlink" width="500" zoomAndPan="magnify" viewBox="0 0 375 374.999991" height="500" preserveAspectRatio="xMidYMid meet" version="1.0"><defs><g/><clipPath id="789ad71f92"><path d="M 0 162.328125 L 375 162.328125 L 375 182.46875 L 0 182.46875 Z M 0 162.328125 " clip-rule="nonzero"/></clipPath><clipPath id="251e717e8d"><path d="M 74.691406 176.351562 L 75.386719 176.351562 L 75.386719 176.632812 L 74.691406 176.632812 Z M 74.691406 176.351562 " clip-rule="nonzero"/></clipPath><clipPath id="2ef2e52966"><path d="M 75.375 176.625 C 73.875 176.023438 75.375 176.625 75.375 176.625 " clip-rule="nonzero"/></clipPath></defs><g fill="#000000" fill-opacity="1"><g transform="translate(49.910157, 192.374987)"><g><path d="M 50.328125 -1.859375 C 50.453125 -1.859375 50.523438 -1.707031 50.546875 -1.40625 C 50.566406 -1.113281 50.554688 -0.804688 50.515625 -0.484375 C 50.472656 -0.160156 50.410156 0 50.328125 0 L 33.40625 0 C 33.332031 0 33.285156 -0.160156 33.265625 -0.484375 C 33.242188 -0.804688 33.242188 -1.113281 33.265625 -1.40625 C 33.285156 -1.707031 33.332031 -1.859375 33.40625 -1.859375 C 35.050781 -1.859375 36.296875 -1.9375 37.140625 -2.09375 C 37.984375 -2.257812 38.546875 -2.753906 38.828125 -3.578125 C 39.109375 -4.398438 39.25 -5.753906 39.25 -7.640625 L 39.25 -20.65625 L 26.90625 -20.65625 C 25.539062 -20.65625 24.046875 -20.65625 22.421875 -20.65625 C 20.796875 -20.65625 19.226562 -20.65625 17.71875 -20.65625 C 16.21875 -20.65625 14.96875 -20.65625 13.96875 -20.65625 L 13.96875 -7.640625 C 13.96875 -5.753906 14.109375 -4.398438 14.390625 -3.578125 C 14.671875 -2.753906 15.234375 -2.257812 16.078125 -2.09375 C 16.921875 -1.9375 18.164062 -1.859375 19.8125 -1.859375 C 19.882812 -1.859375 19.929688 -1.707031 19.953125 -1.40625 C 19.972656 -1.113281 19.972656 -0.804688 19.953125 -0.484375 C 19.929688 -0.160156 19.882812 0 19.8125 0 L 2.890625 0 C 2.804688 0 2.753906 -0.160156 2.734375 -0.484375 C 2.710938 -0.804688 2.710938 -1.113281 2.734375 -1.40625 C 2.753906 -1.707031 2.804688 -1.859375 2.890625 -1.859375 C 4.535156 -1.859375 5.78125 -1.9375 6.625 -2.09375 C 7.46875 -2.257812 8.03125 -2.753906 8.3125 -3.578125 C 8.59375 -4.398438 8.734375 -5.753906 8.734375 -7.640625 L 8.734375 -34.5 C 8.734375 -36.425781 8.59375 -37.789062 8.3125 -38.59375 C 8.03125 -39.394531 7.46875 -39.882812 6.625 -40.0625 C 5.78125 -40.25 4.535156 -40.320312 2.890625 -40.28125 C 2.804688 -40.28125 2.753906 -40.4375 2.734375 -40.75 C 2.710938 -41.070312 2.710938 -41.382812 2.734375 -41.6875 C 2.753906 -41.988281 2.804688 -42.140625 2.890625 -42.140625 L 19.8125 -42.140625 C 19.882812 -42.140625 19.929688 -41.988281 19.953125 -41.6875 C 19.972656 -41.382812 19.972656 -41.070312 19.953125 -40.75 C 19.929688 -40.4375 19.882812 -40.28125 19.8125 -40.28125 C 18.164062 -40.320312 16.921875 -40.25 16.078125 -40.0625 C 15.234375 -39.882812 14.671875 -39.394531 14.390625 -38.59375 C 14.109375 -37.789062 13.96875 -36.425781 13.96875 -34.5 L 13.96875 -22.8125 L 26.84375 -22.8125 C 29.257812 -22.8125 31.445312 -22.8125 33.40625 -22.8125 C 35.375 -22.8125 37.320312 -22.8125 39.25 -22.8125 L 39.25 -34.5 C 39.25 -36.425781 39.109375 -37.789062 38.828125 -38.59375 C 38.546875 -39.394531 37.984375 -39.882812 37.140625 -40.0625 C 36.296875 -40.25 35.050781 -40.320312 33.40625 -40.28125 C 33.332031 -40.28125 33.285156 -40.4375 33.265625 -40.75 C 33.242188 -41.070312 33.242188 -41.382812 33.265625 -41.6875 C 33.285156 -41.988281 33.332031 -42.140625 33.40625 -42.140625 L 50.328125 -42.140625 C 50.410156 -42.140625 50.472656 -41.988281 50.515625 -41.6875 C 50.554688 -41.382812 50.566406 -41.070312 50.546875 -40.75 C 50.523438 -40.4375 50.453125 -40.28125 50.328125 -40.28125 C 48.679688 -40.320312 47.4375 -40.25 46.59375 -40.0625 C 45.75 -39.882812 45.1875 -39.394531 44.90625 -38.59375 C 44.625 -37.789062 44.484375 -36.425781 44.484375 -34.5 L 44.484375 -7.640625 C 44.484375 -5.753906 44.625 -4.398438 44.90625 -3.578125 C 45.1875 -2.753906 45.75 -2.257812 46.59375 -2.09375 C 47.4375 -1.9375 48.679688 -1.859375 50.328125 -1.859375 Z M 50.328125 -1.859375 "/></g></g></g><g fill="#000000" fill-opacity="1"><g transform="translate(103.126199, 192.374987)"><g><path d="M 13.484375 -42.140625 L 19.8125 -42.140625 C 19.882812 -42.140625 19.929688 -41.988281 19.953125 -41.6875 C 19.972656 -41.382812 19.972656 -41.070312 19.953125 -40.75 C 19.929688 -40.4375 19.882812 -40.28125 19.8125 -40.28125 C 18.164062 -40.320312 16.921875 -40.25 16.078125 -40.0625 C 15.234375 -39.882812 14.671875 -39.394531 14.390625 -38.59375 C 14.109375 -37.789062 13.96875 -36.425781 13.96875 -34.5 L 13.96875 -7.640625 C 13.96875 -5.753906 14.109375 -4.398438 14.390625 -3.578125 C 14.671875 -2.753906 15.234375 -2.257812 16.078125 -2.09375 C 16.921875 -1.9375 18.164062 -1.859375 19.8125 -1.859375 C 19.882812 -1.859375 19.929688 -1.707031 19.953125 -1.40625 C 19.972656 -1.113281 19.972656 -0.804688 19.953125 -0.484375 C 19.929688 -0.160156 19.882812 0 19.8125 0 L 2.890625 0 C 2.804688 0 2.753906 -0.160156 2.734375 -0.484375 C 2.710938 -0.804688 2.710938 -1.113281 2.734375 -1.40625 C 2.753906 -1.707031 2.804688 -1.859375 2.890625 -1.859375 C 4.535156 -1.859375 5.78125 -1.9375 6.625 -2.09375 C 7.46875 -2.257812 8.03125 -2.753906 8.3125 -3.578125 C 8.59375 -4.398438 8.734375 -5.753906 8.734375 -7.640625 L 8.734375 -34.5 C 8.734375 -36.425781 8.59375 -37.789062 8.3125 -38.59375 C 8.03125 -39.394531 7.46875 -39.882812 6.625 -40.0625 C 5.78125 -40.25 4.535156 -40.320312 2.890625 -40.28125 C 2.804688 -40.28125 2.753906 -40.4375 2.734375 -40.75 C 2.710938 -41.070312 2.710938 -41.382812 2.734375 -41.6875 C 2.753906 -41.988281 2.804688 -42.140625 2.890625 -42.140625 Z M 13.484375 -42.140625 "/></g></g></g><g fill="#000000" fill-opacity="1"><g transform="translate(125.821273, 192.374987)"><g><path d="M 21.671875 0 L 2.890625 0 C 2.804688 0 2.753906 -0.160156 2.734375 -0.484375 C 2.710938 -0.804688 2.710938 -1.113281 2.734375 -1.40625 C 2.753906 -1.707031 2.804688 -1.859375 2.890625 -1.859375 C 4.535156 -1.859375 5.78125 -1.9375 6.625 -2.09375 C 7.46875 -2.257812 8.03125 -2.753906 8.3125 -3.578125 C 8.59375 -4.398438 8.734375 -5.753906 8.734375 -7.640625 L 8.734375 -34.5 C 8.734375 -36.425781 8.59375 -37.789062 8.3125 -38.59375 C 8.03125 -39.394531 7.46875 -39.882812 6.625 -40.0625 C 5.78125 -40.25 4.535156 -40.320312 2.890625 -40.28125 C 2.804688 -40.28125 2.753906 -40.4375 2.734375 -40.75 C 2.710938 -41.070312 2.710938 -41.382812 2.734375 -41.6875 C 2.753906 -41.988281 2.804688 -42.140625 2.890625 -42.140625 L 21.1875 -42.140625 C 26.320312 -42.140625 30.863281 -41.335938 34.8125 -39.734375 C 38.769531 -38.128906 41.875 -35.757812 44.125 -32.625 C 46.375 -29.5 47.5 -25.648438 47.5 -21.078125 C 47.5 -16.492188 46.40625 -12.632812 44.21875 -9.5 C 42.03125 -6.375 39 -4.007812 35.125 -2.40625 C 31.25 -0.800781 26.765625 0 21.671875 0 Z M 14.515625 -2.171875 L 20.703125 -2.171875 C 27.171875 -2.171875 32.25 -3.804688 35.9375 -7.078125 C 39.632812 -10.347656 41.484375 -15.015625 41.484375 -21.078125 C 41.484375 -27.128906 39.613281 -31.789062 35.875 -35.0625 C 32.144531 -38.332031 26.988281 -39.96875 20.40625 -39.96875 L 14.453125 -39.96875 C 14.328125 -39.09375 14.222656 -38.257812 14.140625 -37.46875 C 14.066406 -36.6875 14.019531 -35.765625 14 -34.703125 C 13.976562 -33.640625 13.96875 -32.242188 13.96875 -30.515625 L 13.96875 -11.671875 C 13.96875 -9.953125 13.976562 -8.5625 14 -7.5 C 14.019531 -6.4375 14.066406 -5.5 14.140625 -4.6875 C 14.222656 -3.882812 14.347656 -3.046875 14.515625 -2.171875 Z M 14.515625 -2.171875 "/></g></g></g><g fill="#000000" fill-opacity="1"><g transform="translate(176.388546, 192.374987)"><g><path d="M 21.671875 0 L 2.890625 0 C 2.804688 0 2.753906 -0.160156 2.734375 -0.484375 C 2.710938 -0.804688 2.710938 -1.113281 2.734375 -1.40625 C 2.753906 -1.707031 2.804688 -1.859375 2.890625 -1.859375 C 4.535156 -1.859375 5.78125 -1.9375 6.625 -2.09375 C 7.46875 -2.257812 8.03125 -2.753906 8.3125 -3.578125 C 8.59375 -4.398438 8.734375 -5.753906 8.734375 -7.640625 L 8.734375 -34.5 C 8.734375 -36.425781 8.59375 -37.789062 8.3125 -38.59375 C 8.03125 -39.394531 7.46875 -39.882812 6.625 -40.0625 C 5.78125 -40.25 4.535156 -40.320312 2.890625 -40.28125 C 2.804688 -40.28125 2.753906 -40.4375 2.734375 -40.75 C 2.710938 -41.070312 2.710938 -41.382812 2.734375 -41.6875 C 2.753906 -41.988281 2.804688 -42.140625 2.890625 -42.140625 L 21.1875 -42.140625 C 26.320312 -42.140625 30.863281 -41.335938 34.8125 -39.734375 C 38.769531 -38.128906 41.875 -35.757812 44.125 -32.625 C 46.375 -29.5 47.5 -25.648438 47.5 -21.078125 C 47.5 -16.492188 46.40625 -12.632812 44.21875 -9.5 C 42.03125 -6.375 39 -4.007812 35.125 -2.40625 C 31.25 -0.800781 26.765625 0 21.671875 0 Z M 14.515625 -2.171875 L 20.703125 -2.171875 C 27.171875 -2.171875 32.25 -3.804688 35.9375 -7.078125 C 39.632812 -10.347656 41.484375 -15.015625 41.484375 -21.078125 C 41.484375 -27.128906 39.613281 -31.789062 35.875 -35.0625 C 32.144531 -38.332031 26.988281 -39.96875 20.40625 -39.96875 L 14.453125 -39.96875 C 14.328125 -39.09375 14.222656 -38.257812 14.140625 -37.46875 C 14.066406 -36.6875 14.019531 -35.765625 14 -34.703125 C 13.976562 -33.640625 13.96875 -32.242188 13.96875 -30.515625 L 13.96875 -11.671875 C 13.96875 -9.953125 13.976562 -8.5625 14 -7.5 C 14.019531 -6.4375 14.066406 -5.5 14.140625 -4.6875 C 14.222656 -3.882812 14.347656 -3.046875 14.515625 -2.171875 Z M 14.515625 -2.171875 "/></g></g></g><g fill="#000000" fill-opacity="1"><g transform="translate(226.955819, 192.374987)"><g><path d="M 39.609375 -15.65625 C 39.648438 -15.851562 39.910156 -15.921875 40.390625 -15.859375 C 40.878906 -15.796875 41.101562 -15.6875 41.0625 -15.53125 L 39.015625 2.28125 C 38.972656 2.363281 38.757812 2.425781 38.375 2.46875 C 38 2.507812 37.769531 2.445312 37.6875 2.28125 C 37.445312 1.882812 37.144531 1.515625 36.78125 1.171875 C 36.425781 0.828125 35.84375 0.546875 35.03125 0.328125 C 34.226562 0.109375 33.023438 0 31.421875 0 L 2.890625 0 C 2.804688 0 2.753906 -0.160156 2.734375 -0.484375 C 2.710938 -0.804688 2.710938 -1.113281 2.734375 -1.40625 C 2.753906 -1.707031 2.804688 -1.859375 2.890625 -1.859375 C 4.535156 -1.859375 5.78125 -1.9375 6.625 -2.09375 C 7.46875 -2.257812 8.03125 -2.753906 8.3125 -3.578125 C 8.59375 -4.398438 8.734375 -5.753906 8.734375 -7.640625 L 8.734375 -34.5 C 8.734375 -36.425781 8.59375 -37.789062 8.3125 -38.59375 C 8.03125 -39.394531 7.46875 -39.882812 6.625 -40.0625 C 5.78125 -40.25 4.535156 -40.320312 2.890625 -40.28125 C 2.804688 -40.28125 2.753906 -40.4375 2.734375 -40.75 C 2.710938 -41.070312 2.710938 -41.382812 2.734375 -41.6875 C 2.753906 -41.988281 2.804688 -42.140625 2.890625 -42.140625 L 29.6875 -42.140625 C 31.445312 -42.140625 32.773438 -42.25 33.671875 -42.46875 C 34.578125 -42.6875 35.25 -42.96875 35.6875 -43.3125 C 36.132812 -43.65625 36.476562 -44.03125 36.71875 -44.4375 C 36.800781 -44.550781 37.03125 -44.597656 37.40625 -44.578125 C 37.789062 -44.554688 37.984375 -44.507812 37.984375 -44.4375 L 39.921875 -27.453125 C 39.921875 -27.367188 39.695312 -27.285156 39.25 -27.203125 C 38.8125 -27.128906 38.570312 -27.148438 38.53125 -27.265625 C 37.8125 -30.160156 37.148438 -32.445312 36.546875 -34.125 C 35.941406 -35.8125 35.273438 -37.078125 34.546875 -37.921875 C 33.828125 -38.765625 32.96875 -39.316406 31.96875 -39.578125 C 30.96875 -39.835938 29.703125 -39.96875 28.171875 -39.96875 L 13.96875 -39.96875 L 13.96875 -23.546875 L 21.734375 -23.546875 C 24.097656 -23.546875 25.722656 -24.003906 26.609375 -24.921875 C 27.492188 -25.847656 27.9375 -27.414062 27.9375 -29.625 C 27.9375 -29.78125 28.207031 -29.859375 28.75 -29.859375 C 29.289062 -29.859375 29.5625 -29.78125 29.5625 -29.625 L 29.5625 -15.171875 C 29.5625 -15.046875 29.289062 -14.984375 28.75 -14.984375 C 28.207031 -14.984375 27.9375 -15.046875 27.9375 -15.171875 C 27.9375 -16.859375 27.742188 -18.128906 27.359375 -18.984375 C 26.984375 -19.847656 26.34375 -20.441406 25.4375 -20.765625 C 24.53125 -21.085938 23.296875 -21.25 21.734375 -21.25 L 13.96875 -21.25 L 13.96875 -2.171875 L 29.078125 -2.171875 C 30.722656 -2.171875 32.054688 -2.3125 33.078125 -2.59375 C 34.097656 -2.875 34.945312 -3.453125 35.625 -4.328125 C 36.3125 -5.210938 36.957031 -6.554688 37.5625 -8.359375 C 38.164062 -10.171875 38.847656 -12.601562 39.609375 -15.65625 Z M 39.609375 -15.65625 "/></g></g></g><g fill="#000000" fill-opacity="1"><g transform="translate(271.503191, 192.374987)"><g><path d="M 43.28125 0 L 11.671875 -36.78125 L 11.671875 -8.1875 C 11.671875 -6.257812 11.875 -4.820312 12.28125 -3.875 C 12.6875 -2.9375 13.410156 -2.316406 14.453125 -2.015625 C 15.492188 -1.710938 16.957031 -1.5625 18.84375 -1.5625 C 18.96875 -1.5625 19.03125 -1.300781 19.03125 -0.78125 C 19.03125 -0.257812 18.96875 0 18.84375 0 L 2.828125 0 C 2.742188 0 2.691406 -0.140625 2.671875 -0.421875 C 2.660156 -0.703125 2.660156 -0.984375 2.671875 -1.265625 C 2.691406 -1.546875 2.742188 -1.6875 2.828125 -1.6875 C 4.597656 -1.6875 5.960938 -1.847656 6.921875 -2.171875 C 7.890625 -2.492188 8.5625 -3.15625 8.9375 -4.15625 C 9.320312 -5.15625 9.515625 -6.660156 9.515625 -8.671875 L 9.515625 -33.109375 C 9.515625 -35.359375 9.363281 -36.960938 9.0625 -37.921875 C 8.757812 -38.890625 8.164062 -39.472656 7.28125 -39.671875 C 6.394531 -39.867188 5.09375 -39.96875 3.375 -39.96875 C 3.289062 -39.96875 3.238281 -40.148438 3.21875 -40.515625 C 3.195312 -40.878906 3.195312 -41.238281 3.21875 -41.59375 C 3.238281 -41.957031 3.289062 -42.140625 3.375 -42.140625 L 13.96875 -42.140625 L 43.109375 -7.703125 L 43.109375 -33.953125 C 43.109375 -35.878906 42.90625 -37.3125 42.5 -38.25 C 42.101562 -39.195312 41.390625 -39.820312 40.359375 -40.125 C 39.335938 -40.425781 37.863281 -40.578125 35.9375 -40.578125 C 35.820312 -40.578125 35.765625 -40.835938 35.765625 -41.359375 C 35.765625 -41.878906 35.820312 -42.140625 35.9375 -42.140625 L 51.953125 -42.140625 C 52.035156 -42.140625 52.085938 -42 52.109375 -41.71875 C 52.128906 -41.4375 52.128906 -41.15625 52.109375 -40.875 C 52.085938 -40.59375 52.035156 -40.453125 51.953125 -40.453125 C 50.191406 -40.453125 48.828125 -40.289062 47.859375 -39.96875 C 46.898438 -39.65625 46.226562 -39.003906 45.84375 -38.015625 C 45.457031 -37.035156 45.265625 -35.519531 45.265625 -33.46875 L 45.265625 -0.0625 C 45.265625 0.132812 44.992188 0.253906 44.453125 0.296875 C 43.910156 0.335938 43.519531 0.238281 43.28125 0 Z M 43.28125 0 "/></g></g></g><g clip-path="url(#789ad71f92)"><path fill="#f9f5f2" d="M -5.308594 162.328125 L 380.289062 162.328125 L 380.289062 182.46875 L -5.308594 182.46875 Z M -5.308594 162.328125 " fill-opacity="1" fill-rule="nonzero"/></g><g fill="#000000" fill-opacity="1"><g transform="translate(121.612486, 176.602778)"><g><path d="M 0.734375 0 L 0.734375 -0.140625 C 0.847656 -0.171875 0.941406 -0.222656 1.015625 -0.296875 C 1.085938 -0.378906 1.140625 -0.515625 1.171875 -0.703125 C 1.210938 -0.898438 1.234375 -1.191406 1.234375 -1.578125 L 1.234375 -6.890625 C 1.234375 -7.316406 1.203125 -7.644531 1.140625 -7.875 C 1.085938 -8.101562 1.007812 -8.265625 0.90625 -8.359375 C 0.8125 -8.453125 0.695312 -8.515625 0.5625 -8.546875 L 0.5625 -8.6875 L 1.65625 -8.6875 L 5.09375 -3.0625 L 8.203125 -8.109375 L 8.21875 -8.140625 L 8.546875 -8.6875 L 9.5625 -8.6875 L 9.5625 -8.546875 C 9.425781 -8.515625 9.304688 -8.453125 9.203125 -8.359375 C 9.109375 -8.265625 9.03125 -8.101562 8.96875 -7.875 C 8.914062 -7.644531 8.890625 -7.316406 8.890625 -6.890625 L 8.890625 -1.578125 C 8.890625 -1.191406 8.90625 -0.898438 8.9375 -0.703125 C 8.976562 -0.515625 9.035156 -0.378906 9.109375 -0.296875 C 9.179688 -0.222656 9.273438 -0.171875 9.390625 -0.140625 L 9.390625 0 L 7.703125 0 L 7.703125 -0.140625 C 7.816406 -0.171875 7.910156 -0.222656 7.984375 -0.296875 C 8.054688 -0.378906 8.109375 -0.515625 8.140625 -0.703125 C 8.179688 -0.898438 8.203125 -1.191406 8.203125 -1.578125 L 8.203125 -7.765625 L 4.875 -2.359375 L 4.703125 -2.359375 L 1.453125 -7.6875 L 1.453125 -1.796875 C 1.453125 -1.367188 1.484375 -1.039062 1.546875 -0.8125 C 1.609375 -0.582031 1.691406 -0.421875 1.796875 -0.328125 C 1.910156 -0.234375 2.046875 -0.171875 2.203125 -0.140625 L 2.203125 0 Z M 0.734375 0 "/></g></g></g><g fill="#000000" fill-opacity="1"><g transform="translate(141.780416, 176.602778)"><g><path d="M 0.6875 0 L 0.6875 -0.140625 C 0.800781 -0.171875 0.894531 -0.222656 0.96875 -0.296875 C 1.039062 -0.378906 1.09375 -0.515625 1.125 -0.703125 C 1.15625 -0.898438 1.171875 -1.191406 1.171875 -1.578125 L 1.171875 -7.109375 C 1.171875 -7.484375 1.15625 -7.769531 1.125 -7.96875 C 1.09375 -8.164062 1.039062 -8.304688 0.96875 -8.390625 C 0.894531 -8.472656 0.800781 -8.523438 0.6875 -8.546875 L 0.6875 -8.6875 L 6.25 -8.6875 L 6.40625 -7.203125 L 6.296875 -7.1875 C 6.097656 -7.675781 5.820312 -8.019531 5.46875 -8.21875 C 5.125 -8.414062 4.671875 -8.515625 4.109375 -8.515625 L 1.875 -8.515625 L 1.875 -4.703125 L 3.90625 -4.703125 C 4.332031 -4.703125 4.660156 -4.734375 4.890625 -4.796875 C 5.117188 -4.859375 5.28125 -4.941406 5.375 -5.046875 C 5.46875 -5.160156 5.535156 -5.296875 5.578125 -5.453125 L 5.703125 -5.453125 L 5.703125 -3.796875 L 5.578125 -3.796875 C 5.535156 -3.953125 5.46875 -4.082031 5.375 -4.1875 C 5.28125 -4.300781 5.117188 -4.390625 4.890625 -4.453125 C 4.660156 -4.515625 4.332031 -4.546875 3.90625 -4.546875 L 1.875 -4.546875 L 1.875 -0.65625 C 1.875 -0.320312 2.039062 -0.15625 2.375 -0.15625 L 4.4375 -0.15625 C 5 -0.15625 5.453125 -0.25 5.796875 -0.4375 C 6.140625 -0.625 6.414062 -0.976562 6.625 -1.5 L 6.734375 -1.46875 L 6.625 0 Z M 0.6875 0 "/></g></g></g><g fill="#000000" fill-opacity="1"><g transform="translate(158.934313, 176.602778)"><g><path d="M 0.734375 0 L 0.734375 -0.140625 C 0.847656 -0.171875 0.941406 -0.222656 1.015625 -0.296875 C 1.085938 -0.378906 1.140625 -0.515625 1.171875 -0.703125 C 1.210938 -0.898438 1.234375 -1.191406 1.234375 -1.578125 L 1.234375 -6.890625 C 1.234375 -7.316406 1.203125 -7.644531 1.140625 -7.875 C 1.085938 -8.101562 1.007812 -8.265625 0.90625 -8.359375 C 0.8125 -8.453125 0.695312 -8.515625 0.5625 -8.546875 L 0.5625 -8.6875 L 1.65625 -8.6875 L 5.09375 -3.0625 L 8.203125 -8.109375 L 8.21875 -8.140625 L 8.546875 -8.6875 L 9.5625 -8.6875 L 9.5625 -8.546875 C 9.425781 -8.515625 9.304688 -8.453125 9.203125 -8.359375 C 9.109375 -8.265625 9.03125 -8.101562 8.96875 -7.875 C 8.914062 -7.644531 8.890625 -7.316406 8.890625 -6.890625 L 8.890625 -1.578125 C 8.890625 -1.191406 8.90625 -0.898438 8.9375 -0.703125 C 8.976562 -0.515625 9.035156 -0.378906 9.109375 -0.296875 C 9.179688 -0.222656 9.273438 -0.171875 9.390625 -0.140625 L 9.390625 0 L 7.703125 0 L 7.703125 -0.140625 C 7.816406 -0.171875 7.910156 -0.222656 7.984375 -0.296875 C 8.054688 -0.378906 8.109375 -0.515625 8.140625 -0.703125 C 8.179688 -0.898438 8.203125 -1.191406 8.203125 -1.578125 L 8.203125 -7.765625 L 4.875 -2.359375 L 4.703125 -2.359375 L 1.453125 -7.6875 L 1.453125 -1.796875 C 1.453125 -1.367188 1.484375 -1.039062 1.546875 -0.8125 C 1.609375 -0.582031 1.691406 -0.421875 1.796875 -0.328125 C 1.910156 -0.234375 2.046875 -0.171875 2.203125 -0.140625 L 2.203125 0 Z M 0.734375 0 "/></g></g></g><g fill="#000000" fill-opacity="1"><g transform="translate(179.102245, 176.602778)"><g><path d="M 5 0.125 C 4.46875 0.125 3.941406 0.0351562 3.421875 -0.140625 C 2.910156 -0.316406 2.441406 -0.585938 2.015625 -0.953125 C 1.585938 -1.328125 1.25 -1.789062 1 -2.34375 C 0.75 -2.90625 0.625 -3.566406 0.625 -4.328125 C 0.625 -5.203125 0.804688 -5.972656 1.171875 -6.640625 C 1.535156 -7.316406 2.046875 -7.84375 2.703125 -8.21875 C 3.359375 -8.59375 4.125 -8.78125 5 -8.78125 C 5.519531 -8.78125 6.035156 -8.6875 6.546875 -8.5 C 7.066406 -8.320312 7.539062 -8.050781 7.96875 -7.6875 C 8.394531 -7.320312 8.734375 -6.859375 8.984375 -6.296875 C 9.234375 -5.734375 9.359375 -5.070312 9.359375 -4.3125 C 9.359375 -3.53125 9.226562 -2.859375 8.96875 -2.296875 C 8.71875 -1.742188 8.378906 -1.285156 7.953125 -0.921875 C 7.535156 -0.566406 7.066406 -0.300781 6.546875 -0.125 C 6.035156 0.0390625 5.519531 0.125 5 0.125 Z M 1.296875 -5 C 1.296875 -4.375 1.394531 -3.769531 1.59375 -3.1875 C 1.789062 -2.601562 2.070312 -2.078125 2.4375 -1.609375 C 2.800781 -1.148438 3.226562 -0.785156 3.71875 -0.515625 C 4.207031 -0.242188 4.742188 -0.109375 5.328125 -0.109375 C 6.015625 -0.109375 6.613281 -0.253906 7.125 -0.546875 C 7.632812 -0.847656 8.023438 -1.265625 8.296875 -1.796875 C 8.566406 -2.335938 8.703125 -2.957031 8.703125 -3.65625 C 8.703125 -4.289062 8.597656 -4.898438 8.390625 -5.484375 C 8.191406 -6.066406 7.910156 -6.585938 7.546875 -7.046875 C 7.179688 -7.503906 6.75 -7.867188 6.25 -8.140625 C 5.757812 -8.410156 5.222656 -8.546875 4.640625 -8.546875 C 3.941406 -8.546875 3.34375 -8.390625 2.84375 -8.078125 C 2.34375 -7.773438 1.957031 -7.359375 1.6875 -6.828125 C 1.425781 -6.296875 1.296875 -5.6875 1.296875 -5 Z M 1.296875 -5 "/></g></g></g><g fill="#000000" fill-opacity="1"><g transform="translate(199.009703, 176.602778)"><g><path d="M 7.015625 0.09375 C 6.710938 0.09375 6.476562 0.015625 6.3125 -0.140625 C 6.15625 -0.296875 6.019531 -0.507812 5.90625 -0.78125 C 5.800781 -1.0625 5.664062 -1.390625 5.5 -1.765625 C 5.320312 -2.160156 5.164062 -2.523438 5.03125 -2.859375 C 4.90625 -3.203125 4.753906 -3.492188 4.578125 -3.734375 C 4.398438 -3.984375 4.164062 -4.175781 3.875 -4.3125 C 3.59375 -4.445312 3.210938 -4.515625 2.734375 -4.515625 L 1.875 -4.515625 L 1.875 -1.578125 C 1.875 -1.191406 1.890625 -0.898438 1.921875 -0.703125 C 1.953125 -0.515625 2.003906 -0.378906 2.078125 -0.296875 C 2.160156 -0.222656 2.257812 -0.171875 2.375 -0.140625 L 2.375 0 L 0.6875 0 L 0.6875 -0.140625 C 0.800781 -0.171875 0.894531 -0.222656 0.96875 -0.296875 C 1.039062 -0.378906 1.09375 -0.515625 1.125 -0.703125 C 1.15625 -0.898438 1.171875 -1.191406 1.171875 -1.578125 L 1.171875 -7.109375 C 1.171875 -7.484375 1.15625 -7.769531 1.125 -7.96875 C 1.09375 -8.164062 1.039062 -8.304688 0.96875 -8.390625 C 0.894531 -8.472656 0.800781 -8.523438 0.6875 -8.546875 L 0.6875 -8.6875 L 2.96875 -8.6875 C 4.125 -8.6875 4.953125 -8.519531 5.453125 -8.1875 C 5.960938 -7.863281 6.21875 -7.398438 6.21875 -6.796875 C 6.21875 -6.203125 6 -5.695312 5.5625 -5.28125 C 5.125 -4.875 4.507812 -4.628906 3.71875 -4.546875 C 4.132812 -4.484375 4.46875 -4.378906 4.71875 -4.234375 C 4.976562 -4.085938 5.1875 -3.898438 5.34375 -3.671875 C 5.5 -3.453125 5.632812 -3.195312 5.75 -2.90625 C 5.875 -2.625 6 -2.304688 6.125 -1.953125 C 6.394531 -1.304688 6.625 -0.832031 6.8125 -0.53125 C 7.007812 -0.238281 7.207031 -0.09375 7.40625 -0.09375 C 7.445312 -0.09375 7.484375 -0.09375 7.515625 -0.09375 C 7.546875 -0.101562 7.582031 -0.113281 7.625 -0.125 L 7.625 0 C 7.582031 0.0195312 7.503906 0.0390625 7.390625 0.0625 C 7.273438 0.0820312 7.148438 0.09375 7.015625 0.09375 Z M 1.875 -4.6875 L 3.1875 -4.6875 C 3.90625 -4.6875 4.460938 -4.847656 4.859375 -5.171875 C 5.253906 -5.492188 5.453125 -5.945312 5.453125 -6.53125 C 5.453125 -7.132812 5.226562 -7.613281 4.78125 -7.96875 C 4.34375 -8.332031 3.582031 -8.515625 2.5 -8.515625 C 2.394531 -8.515625 2.289062 -8.515625 2.1875 -8.515625 C 2.09375 -8.515625 1.988281 -8.507812 1.875 -8.5 Z M 1.875 -4.6875 "/></g></g></g><g fill="#000000" fill-opacity="1"><g transform="translate(216.43648, 176.602778)"><g><path d="M 0.6875 0 L 0.6875 -0.140625 C 0.800781 -0.171875 0.894531 -0.222656 0.96875 -0.296875 C 1.039062 -0.378906 1.09375 -0.515625 1.125 -0.703125 C 1.15625 -0.898438 1.171875 -1.191406 1.171875 -1.578125 L 1.171875 -7.109375 C 1.171875 -7.484375 1.15625 -7.769531 1.125 -7.96875 C 1.09375 -8.164062 1.039062 -8.304688 0.96875 -8.390625 C 0.894531 -8.472656 0.800781 -8.523438 0.6875 -8.546875 L 0.6875 -8.6875 L 2.375 -8.6875 L 2.375 -8.546875 C 2.257812 -8.523438 2.160156 -8.472656 2.078125 -8.390625 C 2.003906 -8.304688 1.953125 -8.164062 1.921875 -7.96875 C 1.890625 -7.769531 1.875 -7.484375 1.875 -7.109375 L 1.875 -1.578125 C 1.875 -1.191406 1.890625 -0.898438 1.921875 -0.703125 C 1.953125 -0.515625 2.003906 -0.378906 2.078125 -0.296875 C 2.160156 -0.222656 2.257812 -0.171875 2.375 -0.140625 L 2.375 0 Z M 0.6875 0 "/></g></g></g><g fill="#000000" fill-opacity="1"><g transform="translate(229.410421, 176.602778)"><g><path d="M 0.6875 0 L 0.6875 -0.140625 C 0.800781 -0.171875 0.894531 -0.222656 0.96875 -0.296875 C 1.039062 -0.378906 1.09375 -0.515625 1.125 -0.703125 C 1.15625 -0.898438 1.171875 -1.191406 1.171875 -1.578125 L 1.171875 -7.109375 C 1.171875 -7.484375 1.15625 -7.769531 1.125 -7.96875 C 1.09375 -8.164062 1.039062 -8.304688 0.96875 -8.390625 C 0.894531 -8.472656 0.800781 -8.523438 0.6875 -8.546875 L 0.6875 -8.6875 L 6.25 -8.6875 L 6.40625 -7.203125 L 6.296875 -7.1875 C 6.097656 -7.675781 5.820312 -8.019531 5.46875 -8.21875 C 5.125 -8.414062 4.671875 -8.515625 4.109375 -8.515625 L 1.875 -8.515625 L 1.875 -4.703125 L 3.90625 -4.703125 C 4.332031 -4.703125 4.660156 -4.734375 4.890625 -4.796875 C 5.117188 -4.859375 5.28125 -4.941406 5.375 -5.046875 C 5.46875 -5.160156 5.535156 -5.296875 5.578125 -5.453125 L 5.703125 -5.453125 L 5.703125 -3.796875 L 5.578125 -3.796875 C 5.535156 -3.953125 5.46875 -4.082031 5.375 -4.1875 C 5.28125 -4.300781 5.117188 -4.390625 4.890625 -4.453125 C 4.660156 -4.515625 4.332031 -4.546875 3.90625 -4.546875 L 1.875 -4.546875 L 1.875 -0.65625 C 1.875 -0.320312 2.039062 -0.15625 2.375 -0.15625 L 4.4375 -0.15625 C 5 -0.15625 5.453125 -0.25 5.796875 -0.4375 C 6.140625 -0.625 6.414062 -0.976562 6.625 -1.5 L 6.734375 -1.46875 L 6.625 0 Z M 0.6875 0 "/></g></g></g><g fill="#000000" fill-opacity="1"><g transform="translate(246.564316, 176.602778)"><g><path d="M 3.515625 0.125 C 3.078125 0.125 2.671875 0.078125 2.296875 -0.015625 C 1.929688 -0.109375 1.609375 -0.222656 1.328125 -0.359375 C 1.046875 -0.503906 0.816406 -0.632812 0.640625 -0.75 L 0.5625 -2.34375 L 0.6875 -2.359375 C 0.820312 -1.960938 1.003906 -1.585938 1.234375 -1.234375 C 1.472656 -0.890625 1.789062 -0.609375 2.1875 -0.390625 C 2.59375 -0.171875 3.097656 -0.0625 3.703125 -0.0625 C 4.078125 -0.0625 4.414062 -0.132812 4.71875 -0.28125 C 5.03125 -0.4375 5.28125 -0.644531 5.46875 -0.90625 C 5.65625 -1.164062 5.75 -1.460938 5.75 -1.796875 C 5.75 -2.109375 5.664062 -2.382812 5.5 -2.625 C 5.34375 -2.863281 5.140625 -3.070312 4.890625 -3.25 C 4.640625 -3.425781 4.363281 -3.582031 4.0625 -3.71875 C 3.769531 -3.851562 3.488281 -3.972656 3.21875 -4.078125 C 2.375 -4.410156 1.753906 -4.753906 1.359375 -5.109375 C 0.960938 -5.460938 0.765625 -5.9375 0.765625 -6.53125 C 0.765625 -6.976562 0.882812 -7.367188 1.125 -7.703125 C 1.363281 -8.046875 1.695312 -8.304688 2.125 -8.484375 C 2.550781 -8.671875 3.046875 -8.765625 3.609375 -8.765625 C 4.296875 -8.765625 4.835938 -8.6875 5.234375 -8.53125 C 5.628906 -8.375 5.90625 -8.25 6.0625 -8.15625 L 6.109375 -6.890625 L 6.015625 -6.875 C 5.878906 -7.164062 5.703125 -7.441406 5.484375 -7.703125 C 5.273438 -7.960938 4.992188 -8.171875 4.640625 -8.328125 C 4.296875 -8.492188 3.84375 -8.578125 3.28125 -8.578125 C 2.945312 -8.578125 2.628906 -8.515625 2.328125 -8.390625 C 2.035156 -8.265625 1.796875 -8.070312 1.609375 -7.8125 C 1.429688 -7.5625 1.34375 -7.242188 1.34375 -6.859375 C 1.34375 -6.554688 1.414062 -6.289062 1.5625 -6.0625 C 1.707031 -5.84375 1.898438 -5.648438 2.140625 -5.484375 C 2.378906 -5.316406 2.640625 -5.164062 2.921875 -5.03125 C 3.210938 -4.90625 3.5 -4.785156 3.78125 -4.671875 C 4.28125 -4.460938 4.722656 -4.25 5.109375 -4.03125 C 5.492188 -3.820312 5.796875 -3.570312 6.015625 -3.28125 C 6.234375 -3 6.34375 -2.640625 6.34375 -2.203125 C 6.34375 -1.753906 6.210938 -1.351562 5.953125 -1 C 5.691406 -0.644531 5.347656 -0.367188 4.921875 -0.171875 C 4.492188 0.0234375 4.023438 0.125 3.515625 0.125 Z M 3.515625 0.125 "/></g></g></g><g clip-path="url(#251e717e8d)"><g clip-path="url(#2ef2e52966)"><path fill="#1e1e1e" d="M 70.875 173.023438 L 78.378906 173.023438 L 78.378906 179.625 L 70.875 179.625 Z M 70.875 173.023438 " fill-opacity="1" fill-rule="nonzero"/></g></g></svg>