<svg xmlns="http://www.w3.org/2000/svg" xmlns:xlink="http://www.w3.org/1999/xlink" width="1080" zoomAndPan="magnify" viewBox="0 0 810 1439.999935" height="1920" preserveAspectRatio="xMidYMid meet" version="1.0"><defs><g/><clipPath id="1ea4b99f59"><path d="M 77 657 L 105 657 L 105 685 L 77 685 Z M 77 657 " clip-rule="nonzero"/></clipPath><clipPath id="2b3c6f7eff"><path d="M 80.03125 655.703125 L 106.335938 660.058594 L 101.976562 686.363281 L 75.675781 682.003906 Z M 80.03125 655.703125 " clip-rule="nonzero"/></clipPath><clipPath id="a4548a2e37"><path d="M 93.183594 657.882812 C 85.917969 656.679688 79.054688 661.589844 77.851562 668.855469 C 76.648438 676.117188 81.5625 682.980469 88.824219 684.183594 C 96.089844 685.386719 102.953125 680.472656 104.15625 673.210938 C 105.359375 665.949219 100.445312 659.085938 93.183594 657.882812 Z M 93.183594 657.882812 " clip-rule="nonzero"/></clipPath><clipPath id="50c412e024"><path d="M 73 715 L 89 715 L 89 725 L 73 725 Z M 73 715 " clip-rule="nonzero"/></clipPath><clipPath id="761aec4e7b"><path d="M 73.851562 714.921875 L 88.566406 715.542969 L 88.160156 725.082031 L 73.445312 724.457031 Z M 73.851562 714.921875 " clip-rule="nonzero"/></clipPath><clipPath id="c2c5245fb9"><path d="M 78.621094 715.121094 L 83.785156 715.34375 C 85.050781 715.394531 86.242188 715.949219 87.097656 716.882812 C 87.953125 717.8125 88.402344 719.046875 88.351562 720.3125 C 88.296875 721.578125 87.742188 722.769531 86.8125 723.625 C 85.878906 724.480469 84.644531 724.929688 83.378906 724.878906 L 78.214844 724.660156 C 76.949219 724.605469 75.757812 724.050781 74.902344 723.117188 C 74.046875 722.1875 73.597656 720.953125 73.648438 719.6875 C 73.703125 718.421875 74.257812 717.230469 75.1875 716.375 C 76.121094 715.519531 77.355469 715.070312 78.621094 715.121094 Z M 78.621094 715.121094 " clip-rule="nonzero"/></clipPath><clipPath id="300c0664ca"><path d="M 75 706 L 91 706 L 91 717 L 75 717 Z M 75 706 " clip-rule="nonzero"/></clipPath><clipPath id="15425dea46"><path d="M 76.234375 706.046875 L 90.921875 707.117188 L 90.230469 716.636719 L 75.542969 715.566406 Z M 76.234375 706.046875 " clip-rule="nonzero"/></clipPath><clipPath id="e80c52e1b5"><path d="M 80.996094 706.394531 L 86.152344 706.769531 C 87.414062 706.863281 88.589844 707.453125 89.414062 708.410156 C 90.242188 709.367188 90.65625 710.613281 90.5625 711.875 C 90.472656 713.136719 89.882812 714.3125 88.925781 715.140625 C 87.96875 715.96875 86.71875 716.378906 85.457031 716.289062 L 80.300781 715.914062 C 79.039062 715.820312 77.867188 715.230469 77.039062 714.273438 C 76.210938 713.316406 75.796875 712.066406 75.890625 710.804688 C 75.980469 709.542969 76.570312 708.371094 77.527344 707.542969 C 78.484375 706.714844 79.734375 706.300781 80.996094 706.394531 Z M 80.996094 706.394531 " clip-rule="nonzero"/></clipPath><clipPath id="81bca02f5d"><path d="M 87.164062 667.191406 L 94.84375 667.191406 L 94.84375 674.871094 L 87.164062 674.871094 Z M 87.164062 667.191406 " clip-rule="nonzero"/></clipPath><clipPath id="0fd8308978"><path d="M 91.003906 667.191406 C 88.882812 667.191406 87.164062 668.914062 87.164062 671.03125 C 87.164062 673.152344 88.882812 674.871094 91.003906 674.871094 C 93.125 674.871094 94.84375 673.152344 94.84375 671.03125 C 94.84375 668.914062 93.125 667.191406 91.003906 667.191406 Z M 91.003906 667.191406 " clip-rule="nonzero"/></clipPath><clipPath id="b1420a2d9f"><path d="M 575.230469 686.363281 L 585.605469 686.363281 L 585.605469 696.738281 L 575.230469 696.738281 Z M 575.230469 686.363281 " clip-rule="nonzero"/></clipPath><clipPath id="2937f23c7b"><path d="M 580.417969 686.363281 C 577.550781 686.363281 575.230469 688.683594 575.230469 691.550781 C 575.230469 694.417969 577.550781 696.738281 580.417969 696.738281 C 583.285156 696.738281 585.605469 694.417969 585.605469 691.550781 C 585.605469 688.683594 583.285156 686.363281 580.417969 686.363281 Z M 580.417969 686.363281 " clip-rule="nonzero"/></clipPath><clipPath id="2554b43e53"><path d="M 656 720 L 696 720 L 696 732 L 656 732 Z M 656 720 " clip-rule="nonzero"/></clipPath><clipPath id="e05f0be0b9"><path d="M 656.652344 720.246094 L 696.128906 721.527344 L 695.769531 732.570312 L 656.296875 731.289062 Z M 656.652344 720.246094 " clip-rule="nonzero"/></clipPath><clipPath id="ffeb7ab4f9"><path d="M 676.375 720.886719 C 665.484375 720.53125 656.574219 722.71875 656.476562 725.769531 C 656.375 728.816406 665.125 731.578125 676.015625 731.929688 C 686.90625 732.285156 695.816406 730.097656 695.914062 727.046875 C 696.011719 724 687.265625 721.238281 676.375 720.886719 Z M 676.375 720.886719 " clip-rule="nonzero"/></clipPath><clipPath id="d8a12874c5"><path d="M 665 650 L 700 650 L 700 665 L 665 665 Z M 665 650 " clip-rule="nonzero"/></clipPath><clipPath id="7297ad01f4"><path d="M 665.269531 649.953125 L 700.171875 651.03125 L 699.765625 664.246094 L 664.863281 663.171875 Z M 665.269531 649.953125 " clip-rule="nonzero"/></clipPath><clipPath id="04d875daf3"><path d="M 671.878906 650.15625 L 693.519531 650.824219 C 697.171875 650.9375 700.039062 653.988281 699.925781 657.636719 C 699.8125 661.289062 696.761719 664.15625 693.113281 664.042969 L 671.472656 663.375 C 667.824219 663.261719 664.953125 660.210938 665.066406 656.5625 C 665.179688 652.914062 668.230469 650.042969 671.878906 650.15625 Z M 671.878906 650.15625 " clip-rule="nonzero"/></clipPath><clipPath id="9eb8c8b760"><path d="M 179 683 L 190 683 L 190 693 L 179 693 Z M 179 683 " clip-rule="nonzero"/></clipPath><clipPath id="7f2f06c1ea"><path d="M 179.542969 683.597656 L 188.914062 683.210938 L 189.300781 692.582031 L 179.929688 692.96875 Z M 179.542969 683.597656 " clip-rule="nonzero"/></clipPath><clipPath id="d695c0df3c"><path d="M 184.230469 683.402344 C 181.640625 683.511719 179.628906 685.695312 179.738281 688.285156 C 179.84375 690.871094 182.03125 692.882812 184.617188 692.773438 C 187.203125 692.667969 189.214844 690.484375 189.109375 687.894531 C 189 685.308594 186.816406 683.296875 184.230469 683.402344 Z M 184.230469 683.402344 " clip-rule="nonzero"/></clipPath><clipPath id="1e99763735"><path d="M 181 684 L 187 684 L 187 699 L 181 699 Z M 181 684 " clip-rule="nonzero"/></clipPath><clipPath id="047a5bad64"><path d="M 182.5 684.847656 L 186.246094 685.050781 L 185.527344 698.261719 L 181.78125 698.054688 Z M 182.5 684.847656 " clip-rule="nonzero"/></clipPath><clipPath id="f699eaf165"><path d="M 184.375 684.949219 C 184.871094 684.976562 185.335938 685.199219 185.667969 685.570312 C 186 685.941406 186.171875 686.425781 186.144531 686.925781 L 185.628906 696.382812 C 185.601562 696.878906 185.378906 697.34375 185.007812 697.675781 C 184.636719 698.007812 184.152344 698.179688 183.65625 698.152344 C 183.160156 698.125 182.691406 697.902344 182.359375 697.53125 C 182.027344 697.160156 181.859375 696.675781 181.886719 696.179688 L 182.398438 686.71875 C 182.425781 686.222656 182.648438 685.757812 183.019531 685.425781 C 183.390625 685.09375 183.878906 684.921875 184.375 684.949219 Z M 184.375 684.949219 " clip-rule="nonzero"/></clipPath><clipPath id="3561c7252a"><path d="M 497.832031 718.472656 L 504.4375 718.472656 L 504.4375 725.078125 L 497.832031 725.078125 Z M 497.832031 718.472656 " clip-rule="nonzero"/></clipPath><clipPath id="545cfd2142"><path d="M 501.132812 718.472656 C 499.308594 718.472656 497.832031 719.953125 497.832031 721.777344 C 497.832031 723.601562 499.308594 725.078125 501.132812 725.078125 C 502.960938 725.078125 504.4375 723.601562 504.4375 721.777344 C 504.4375 719.953125 502.960938 718.472656 501.132812 718.472656 Z M 501.132812 718.472656 " clip-rule="nonzero"/></clipPath><clipPath id="8d739cae69"><path d="M 509.6875 719.222656 L 516.296875 719.222656 L 516.296875 725.828125 L 509.6875 725.828125 Z M 509.6875 719.222656 " clip-rule="nonzero"/></clipPath><clipPath id="50c717adf2"><path d="M 512.992188 719.222656 C 511.167969 719.222656 509.6875 720.703125 509.6875 722.527344 C 509.6875 724.351562 511.167969 725.828125 512.992188 725.828125 C 514.816406 725.828125 516.296875 724.351562 516.296875 722.527344 C 516.296875 720.703125 514.816406 719.222656 512.992188 719.222656 Z M 512.992188 719.222656 " clip-rule="nonzero"/></clipPath></defs><g fill="#ebddc9" fill-opacity="1"><g transform="translate(18.619499, 726.696743)"><g><path d="M 39.625 -64.65625 C 39.9375 -66.445312 40.644531 -67.742188 41.75 -68.546875 C 42.863281 -69.347656 44.113281 -69.734375 45.5 -69.703125 C 46.882812 -69.671875 48.207031 -69.300781 49.46875 -68.59375 C 50.726562 -67.882812 51.710938 -66.878906 52.421875 -65.578125 C 53.128906 -64.285156 53.300781 -62.75 52.9375 -60.96875 C 49.601562 -44.03125 47.320312 -26.941406 46.09375 -9.703125 C 45.96875 -7.910156 45.394531 -6.472656 44.375 -5.390625 C 43.363281 -4.316406 42.148438 -3.609375 40.734375 -3.265625 C 39.316406 -2.929688 37.945312 -2.929688 36.625 -3.265625 C 35.300781 -3.609375 34.207031 -4.316406 33.34375 -5.390625 C 32.476562 -6.472656 32.109375 -7.910156 32.234375 -9.703125 C 32.421875 -12.597656 32.648438 -15.472656 32.921875 -18.328125 C 33.203125 -21.191406 33.5 -24.070312 33.8125 -26.96875 L 21.15625 -26.96875 C 20.71875 -23.332031 20.285156 -19.679688 19.859375 -16.015625 C 19.429688 -12.359375 19 -8.679688 18.5625 -4.984375 C 18.320312 -3.265625 17.675781 -1.878906 16.625 -0.828125 C 15.582031 0.210938 14.351562 0.914062 12.9375 1.28125 C 11.519531 1.65625 10.132812 1.671875 8.78125 1.328125 C 7.425781 0.992188 6.347656 0.289062 5.546875 -0.78125 C 4.742188 -1.863281 4.46875 -3.265625 4.71875 -4.984375 C 5.269531 -10.097656 5.851562 -15.191406 6.46875 -20.265625 C 7.082031 -25.347656 7.664062 -30.414062 8.21875 -35.46875 C 8.53125 -37.9375 8.835938 -40.382812 9.140625 -42.8125 C 9.453125 -45.25 9.726562 -47.695312 9.96875 -50.15625 C 10.21875 -52.3125 10.421875 -54.585938 10.578125 -56.984375 C 10.734375 -59.390625 11.210938 -61.640625 12.015625 -63.734375 C 12.628906 -65.398438 13.566406 -66.601562 14.828125 -67.34375 C 16.085938 -68.082031 17.441406 -68.4375 18.890625 -68.40625 C 20.335938 -68.375 21.675781 -68.003906 22.90625 -67.296875 C 24.132812 -66.585938 25.007812 -65.613281 25.53125 -64.375 C 26.0625 -63.144531 25.988281 -61.703125 25.3125 -60.046875 C 24.570312 -58.015625 24.140625 -55.8125 24.015625 -53.4375 C 23.890625 -51.0625 23.707031 -48.828125 23.46875 -46.734375 C 23.34375 -45.753906 23.21875 -44.769531 23.09375 -43.78125 C 22.96875 -42.800781 22.84375 -41.816406 22.71875 -40.828125 L 35.5625 -40.828125 C 36.113281 -44.828125 36.726562 -48.8125 37.40625 -52.78125 C 38.082031 -56.757812 38.820312 -60.71875 39.625 -64.65625 Z M 39.625 -64.65625 "/></g></g><g transform="translate(76.349775, 726.696743)"><g><path d="M 8.78125 -56.90625 C 8.957031 -58.625 9.566406 -60.003906 10.609375 -61.046875 C 11.660156 -62.097656 12.894531 -62.804688 14.3125 -63.171875 C 15.726562 -63.546875 17.113281 -63.5625 18.46875 -63.21875 C 19.820312 -62.882812 20.898438 -62.175781 21.703125 -61.09375 C 22.503906 -60.019531 22.8125 -58.625 22.625 -56.90625 C 20.84375 -40.21875 19.457031 -23.5 18.46875 -6.75 C 18.351562 -4.957031 17.800781 -3.519531 16.8125 -2.4375 C 15.820312 -1.363281 14.632812 -0.65625 13.25 -0.3125 C 11.863281 0.0195312 10.492188 0.0195312 9.140625 -0.3125 C 7.785156 -0.65625 6.660156 -1.363281 5.765625 -2.4375 C 4.878906 -3.519531 4.5 -4.957031 4.625 -6.75 C 5.601562 -23.5 6.988281 -40.21875 8.78125 -56.90625 Z M 8.78125 -56.90625 "/></g></g></g><g fill="#ebddc9" fill-opacity="1"><g transform="translate(103.69084, 726.696743)"><g><path d="M 40 -57.1875 C 43.132812 -54.351562 45.5625 -50.976562 47.28125 -47.0625 C 49.007812 -43.15625 49.628906 -39.046875 49.140625 -34.734375 C 48.710938 -31.160156 47.554688 -27.816406 45.671875 -24.703125 C 43.796875 -21.597656 41.503906 -18.90625 38.796875 -16.625 C 35.773438 -14.039062 32.21875 -11.960938 28.125 -10.390625 C 24.03125 -8.816406 20.101562 -7.414062 16.34375 -6.1875 C 15.300781 -5.820312 14.238281 -5.53125 13.15625 -5.3125 C 12.082031 -5.09375 11.019531 -5.046875 9.96875 -5.171875 C 8.5 -5.359375 7.222656 -6.050781 6.140625 -7.25 C 5.066406 -8.445312 4.5625 -9.785156 4.625 -11.265625 C 5.050781 -28.015625 5.878906 -44.796875 7.109375 -61.609375 C 7.234375 -63.523438 7.863281 -64.863281 9 -65.625 C 10.144531 -66.394531 11.5 -66.796875 13.0625 -66.828125 C 14.632812 -66.859375 16.160156 -66.753906 17.640625 -66.515625 C 18.503906 -66.390625 19.304688 -66.265625 20.046875 -66.140625 C 23.679688 -65.398438 27.191406 -64.367188 30.578125 -63.046875 C 33.960938 -61.722656 37.101562 -59.769531 40 -57.1875 Z M 34.828125 -34 C 35.691406 -36.457031 35.828125 -38.703125 35.234375 -40.734375 C 34.648438 -42.765625 33.585938 -44.519531 32.046875 -46 C 30.515625 -47.476562 28.703125 -48.707031 26.609375 -49.6875 C 24.515625 -50.675781 22.390625 -51.421875 20.234375 -51.921875 C 19.617188 -41.816406 19.125 -31.773438 18.75 -21.796875 C 21.03125 -22.535156 23.234375 -23.378906 25.359375 -24.328125 C 27.484375 -25.285156 29.375 -26.519531 31.03125 -28.03125 C 32.695312 -29.539062 33.960938 -31.53125 34.828125 -34 Z M 34.828125 -34 "/></g></g></g><g fill="#ebddc9" fill-opacity="1"><g transform="translate(157.634002, 726.696743)"><g><path d="M 40 -57.1875 C 43.132812 -54.351562 45.5625 -50.976562 47.28125 -47.0625 C 49.007812 -43.15625 49.628906 -39.046875 49.140625 -34.734375 C 48.710938 -31.160156 47.554688 -27.816406 45.671875 -24.703125 C 43.796875 -21.597656 41.503906 -18.90625 38.796875 -16.625 C 35.773438 -14.039062 32.21875 -11.960938 28.125 -10.390625 C 24.03125 -8.816406 20.101562 -7.414062 16.34375 -6.1875 C 15.300781 -5.820312 14.238281 -5.53125 13.15625 -5.3125 C 12.082031 -5.09375 11.019531 -5.046875 9.96875 -5.171875 C 8.5 -5.359375 7.222656 -6.050781 6.140625 -7.25 C 5.066406 -8.445312 4.5625 -9.785156 4.625 -11.265625 C 5.050781 -28.015625 5.878906 -44.796875 7.109375 -61.609375 C 7.234375 -63.523438 7.863281 -64.863281 9 -65.625 C 10.144531 -66.394531 11.5 -66.796875 13.0625 -66.828125 C 14.632812 -66.859375 16.160156 -66.753906 17.640625 -66.515625 C 18.503906 -66.390625 19.304688 -66.265625 20.046875 -66.140625 C 23.679688 -65.398438 27.191406 -64.367188 30.578125 -63.046875 C 33.960938 -61.722656 37.101562 -59.769531 40 -57.1875 Z M 34.828125 -34 C 35.691406 -36.457031 35.828125 -38.703125 35.234375 -40.734375 C 34.648438 -42.765625 33.585938 -44.519531 32.046875 -46 C 30.515625 -47.476562 28.703125 -48.707031 26.609375 -49.6875 C 24.515625 -50.675781 22.390625 -51.421875 20.234375 -51.921875 C 19.617188 -41.816406 19.125 -31.773438 18.75 -21.796875 C 21.03125 -22.535156 23.234375 -23.378906 25.359375 -24.328125 C 27.484375 -25.285156 29.375 -26.519531 31.03125 -28.03125 C 32.695312 -29.539062 33.960938 -31.53125 34.828125 -34 Z M 34.828125 -34 "/></g></g></g><g fill="#ebddc9" fill-opacity="1"><g transform="translate(211.577164, 726.696743)"><g><path d="M 38.515625 -19.484375 C 40.304688 -19.429688 41.738281 -18.910156 42.8125 -17.921875 C 43.894531 -16.929688 44.601562 -15.742188 44.9375 -14.359375 C 45.28125 -12.972656 45.28125 -11.601562 44.9375 -10.25 C 44.601562 -8.894531 43.894531 -7.769531 42.8125 -6.875 C 41.738281 -5.988281 40.304688 -5.578125 38.515625 -5.640625 C 34.328125 -5.816406 30.140625 -5.796875 25.953125 -5.578125 C 21.765625 -5.367188 17.578125 -4.925781 13.390625 -4.25 C 12.097656 -4.0625 10.742188 -4.195312 9.328125 -4.65625 C 7.910156 -5.125 6.722656 -5.878906 5.765625 -6.921875 C 4.816406 -7.972656 4.46875 -9.332031 4.71875 -11 C 5.757812 -19.488281 6.910156 -27.984375 8.171875 -36.484375 C 9.429688 -44.984375 10.800781 -53.484375 12.28125 -61.984375 C 12.46875 -63.023438 12.835938 -63.914062 13.390625 -64.65625 C 13.890625 -65.519531 14.597656 -66.242188 15.515625 -66.828125 C 16.441406 -67.410156 17.582031 -67.734375 18.9375 -67.796875 C 25.582031 -67.984375 32.234375 -67.863281 38.890625 -67.4375 C 40.671875 -67.3125 42.097656 -66.738281 43.171875 -65.71875 C 44.253906 -64.707031 44.960938 -63.507812 45.296875 -62.125 C 45.640625 -60.738281 45.640625 -59.367188 45.296875 -58.015625 C 44.960938 -56.660156 44.253906 -55.550781 43.171875 -54.6875 C 42.097656 -53.820312 40.671875 -53.453125 38.890625 -53.578125 C 34.328125 -53.890625 29.675781 -54.046875 24.9375 -54.046875 C 24.632812 -52.253906 24.328125 -50.460938 24.015625 -48.671875 C 23.710938 -46.890625 23.4375 -45.109375 23.1875 -43.328125 C 25.707031 -43.265625 28.140625 -43.109375 30.484375 -42.859375 C 32.328125 -42.671875 33.941406 -41.976562 35.328125 -40.78125 C 36.710938 -39.582031 37.40625 -37.96875 37.40625 -35.9375 C 37.40625 -34.757812 37.082031 -33.617188 36.4375 -32.515625 C 35.789062 -31.410156 34.941406 -30.519531 33.890625 -29.84375 C 32.847656 -29.164062 31.710938 -28.882812 30.484375 -29 C 27.335938 -29.3125 24.195312 -29.46875 21.0625 -29.46875 C 20.8125 -27.738281 20.5625 -25.976562 20.3125 -24.1875 C 20.070312 -22.40625 19.828125 -20.65625 19.578125 -18.9375 C 22.722656 -19.25 25.863281 -19.445312 29 -19.53125 C 32.144531 -19.625 35.316406 -19.609375 38.515625 -19.484375 Z M 38.515625 -19.484375 "/></g></g></g><g fill="#ebddc9" fill-opacity="1"><g transform="translate(261.733211, 726.696743)"><g><path d="M 40.640625 -55.984375 C 40.890625 -57.703125 41.535156 -58.960938 42.578125 -59.765625 C 43.628906 -60.566406 44.847656 -60.96875 46.234375 -60.96875 C 47.617188 -60.96875 48.957031 -60.597656 50.25 -59.859375 C 51.539062 -59.117188 52.554688 -58.101562 53.296875 -56.8125 C 54.035156 -55.519531 54.285156 -54.007812 54.046875 -52.28125 C 51.515625 -35.28125 48.367188 -18.40625 44.609375 -1.65625 C 44.304688 -0.300781 43.613281 0.800781 42.53125 1.65625 C 41.457031 2.519531 40.210938 3.0625 38.796875 3.28125 C 37.378906 3.5 36.039062 3.34375 34.78125 2.8125 C 33.519531 2.289062 32.582031 1.351562 31.96875 0 C 30.550781 -3.382812 29.101562 -6.753906 27.625 -10.109375 C 26.144531 -13.472656 24.664062 -16.816406 23.1875 -20.140625 C 22.257812 -16.140625 21.363281 -12.117188 20.5 -8.078125 C 19.644531 -4.046875 18.847656 -0.03125 18.109375 3.96875 C 17.796875 5.757812 17.082031 7.050781 15.96875 7.84375 C 14.863281 8.644531 13.617188 9.03125 12.234375 9 C 10.847656 8.96875 9.523438 8.597656 8.265625 7.890625 C 7.003906 7.179688 6.019531 6.179688 5.3125 4.890625 C 4.601562 3.597656 4.429688 2.0625 4.796875 0.28125 C 7.515625 -14.375 10.84375 -28.910156 14.78125 -43.328125 C 15.144531 -44.617188 15.878906 -45.691406 16.984375 -46.546875 C 18.097656 -47.410156 19.347656 -47.96875 20.734375 -48.21875 C 22.117188 -48.46875 23.425781 -48.34375 24.65625 -47.84375 C 25.894531 -47.351562 26.820312 -46.398438 27.4375 -44.984375 L 35.5625 -26.234375 C 36.550781 -31.160156 37.457031 -36.101562 38.28125 -41.0625 C 39.113281 -46.019531 39.898438 -50.992188 40.640625 -55.984375 Z M 40.640625 -55.984375 "/></g></g></g><g fill="#ebddc9" fill-opacity="1"><g transform="translate(320.479535, 726.696743)"><g/></g></g><g fill="#ebddc9" fill-opacity="1"><g transform="translate(348.559544, 726.696743)"><g><path d="M 69 -32.890625 C 69.0625 -27.648438 68.859375 -22.441406 68.390625 -17.265625 C 67.929688 -12.097656 67.457031 -6.925781 66.96875 -1.75 C 66.78125 0.03125 66.175781 1.441406 65.15625 2.484375 C 64.144531 3.535156 62.929688 4.242188 61.515625 4.609375 C 60.097656 4.984375 58.710938 4.984375 57.359375 4.609375 C 56.003906 4.242188 54.910156 3.535156 54.078125 2.484375 C 53.253906 1.441406 52.929688 0.03125 53.109375 -1.75 C 53.546875 -5.820312 54.007812 -10.007812 54.5 -14.3125 C 54.988281 -18.625 55.3125 -22.9375 55.46875 -27.25 C 55.625 -31.5625 55.332031 -35.75 54.59375 -39.8125 C 54.46875 -40.550781 54.265625 -41.273438 53.984375 -41.984375 C 53.710938 -42.691406 53.546875 -43.414062 53.484375 -44.15625 C 52.804688 -43.414062 52.050781 -42.644531 51.21875 -41.84375 C 50.382812 -41.039062 49.753906 -40.300781 49.328125 -39.625 C 47.910156 -37.53125 46.816406 -35.328125 46.046875 -33.015625 C 45.273438 -30.710938 44.675781 -28.328125 44.25 -25.859375 C 44 -24.328125 43.347656 -23.160156 42.296875 -22.359375 C 41.253906 -21.554688 40.054688 -21.09375 38.703125 -20.96875 C 37.347656 -20.84375 36.023438 -21.023438 34.734375 -21.515625 C 33.441406 -22.015625 32.394531 -22.785156 31.59375 -23.828125 C 30.789062 -24.878906 30.484375 -26.175781 30.671875 -27.71875 C 30.796875 -29.375 30.898438 -31.03125 30.984375 -32.6875 C 31.078125 -34.351562 31.09375 -36.050781 31.03125 -37.78125 C 31.03125 -38.332031 31.046875 -39.113281 31.078125 -40.125 C 31.109375 -41.144531 31.078125 -42.132812 30.984375 -43.09375 C 30.898438 -44.050781 30.640625 -44.773438 30.203125 -45.265625 C 30.078125 -45.453125 30.046875 -45.601562 30.109375 -45.71875 C 29.929688 -45.664062 29.867188 -45.664062 29.921875 -45.71875 C 29.367188 -45.539062 28.832031 -44.988281 28.3125 -44.0625 C 27.789062 -43.132812 27.40625 -42.488281 27.15625 -42.125 C 26.476562 -41.007812 25.878906 -39.851562 25.359375 -38.65625 C 24.835938 -37.457031 24.359375 -36.242188 23.921875 -35.015625 C 21.890625 -29.523438 20.566406 -23.851562 19.953125 -18 C 19.335938 -12.15625 18.84375 -6.335938 18.46875 -0.546875 C 18.351562 1.234375 17.800781 2.660156 16.8125 3.734375 C 15.820312 4.816406 14.632812 5.523438 13.25 5.859375 C 11.863281 6.203125 10.492188 6.203125 9.140625 5.859375 C 7.785156 5.523438 6.660156 4.816406 5.765625 3.734375 C 4.878906 2.660156 4.5 1.234375 4.625 -0.546875 C 4.925781 -5.359375 5.289062 -10.195312 5.71875 -15.0625 C 6.15625 -19.925781 6.894531 -24.726562 7.9375 -29.46875 C 8.5625 -32.363281 9.378906 -35.378906 10.390625 -38.515625 C 11.410156 -41.660156 12.671875 -44.691406 14.171875 -47.609375 C 15.679688 -50.535156 17.515625 -53.046875 19.671875 -55.140625 C 21.703125 -57.179688 24.085938 -58.539062 26.828125 -59.21875 C 29.578125 -59.894531 32.257812 -59.832031 34.875 -59.03125 C 37.488281 -58.226562 39.660156 -56.535156 41.390625 -53.953125 C 41.441406 -53.828125 41.53125 -53.671875 41.65625 -53.484375 C 41.78125 -53.296875 41.875 -53.113281 41.9375 -52.9375 C 43.71875 -55.082031 45.671875 -56.785156 47.796875 -58.046875 C 49.921875 -59.316406 52.125 -59.875 54.40625 -59.71875 C 56.6875 -59.5625 59.023438 -58.4375 61.421875 -56.34375 C 63.578125 -54.5 65.175781 -52.253906 66.21875 -49.609375 C 67.269531 -46.960938 67.976562 -44.175781 68.34375 -41.25 C 68.71875 -38.320312 68.9375 -35.535156 69 -32.890625 Z M 69 -32.890625 "/></g></g></g><g fill="#ebddc9" fill-opacity="1"><g transform="translate(422.177174, 726.696743)"><g><path d="M 38.515625 -19.484375 C 40.304688 -19.429688 41.738281 -18.910156 42.8125 -17.921875 C 43.894531 -16.929688 44.601562 -15.742188 44.9375 -14.359375 C 45.28125 -12.972656 45.28125 -11.601562 44.9375 -10.25 C 44.601562 -8.894531 43.894531 -7.769531 42.8125 -6.875 C 41.738281 -5.988281 40.304688 -5.578125 38.515625 -5.640625 C 34.328125 -5.816406 30.140625 -5.796875 25.953125 -5.578125 C 21.765625 -5.367188 17.578125 -4.925781 13.390625 -4.25 C 12.097656 -4.0625 10.742188 -4.195312 9.328125 -4.65625 C 7.910156 -5.125 6.722656 -5.878906 5.765625 -6.921875 C 4.816406 -7.972656 4.46875 -9.332031 4.71875 -11 C 5.757812 -19.488281 6.910156 -27.984375 8.171875 -36.484375 C 9.429688 -44.984375 10.800781 -53.484375 12.28125 -61.984375 C 12.46875 -63.023438 12.835938 -63.914062 13.390625 -64.65625 C 13.890625 -65.519531 14.597656 -66.242188 15.515625 -66.828125 C 16.441406 -67.410156 17.582031 -67.734375 18.9375 -67.796875 C 25.582031 -67.984375 32.234375 -67.863281 38.890625 -67.4375 C 40.671875 -67.3125 42.097656 -66.738281 43.171875 -65.71875 C 44.253906 -64.707031 44.960938 -63.507812 45.296875 -62.125 C 45.640625 -60.738281 45.640625 -59.367188 45.296875 -58.015625 C 44.960938 -56.660156 44.253906 -55.550781 43.171875 -54.6875 C 42.097656 -53.820312 40.671875 -53.453125 38.890625 -53.578125 C 34.328125 -53.890625 29.675781 -54.046875 24.9375 -54.046875 C 24.632812 -52.253906 24.328125 -50.460938 24.015625 -48.671875 C 23.710938 -46.890625 23.4375 -45.109375 23.1875 -43.328125 C 25.707031 -43.265625 28.140625 -43.109375 30.484375 -42.859375 C 32.328125 -42.671875 33.941406 -41.976562 35.328125 -40.78125 C 36.710938 -39.582031 37.40625 -37.96875 37.40625 -35.9375 C 37.40625 -34.757812 37.082031 -33.617188 36.4375 -32.515625 C 35.789062 -31.410156 34.941406 -30.519531 33.890625 -29.84375 C 32.847656 -29.164062 31.710938 -28.882812 30.484375 -29 C 27.335938 -29.3125 24.195312 -29.46875 21.0625 -29.46875 C 20.8125 -27.738281 20.5625 -25.976562 20.3125 -24.1875 C 20.070312 -22.40625 19.828125 -20.65625 19.578125 -18.9375 C 22.722656 -19.25 25.863281 -19.445312 29 -19.53125 C 32.144531 -19.625 35.316406 -19.609375 38.515625 -19.484375 Z M 38.515625 -19.484375 "/></g></g></g><g fill="#ebddc9" fill-opacity="1"><g transform="translate(472.333222, 726.696743)"><g><path d="M 69 -32.890625 C 69.0625 -27.648438 68.859375 -22.441406 68.390625 -17.265625 C 67.929688 -12.097656 67.457031 -6.925781 66.96875 -1.75 C 66.78125 0.03125 66.175781 1.441406 65.15625 2.484375 C 64.144531 3.535156 62.929688 4.242188 61.515625 4.609375 C 60.097656 4.984375 58.710938 4.984375 57.359375 4.609375 C 56.003906 4.242188 54.910156 3.535156 54.078125 2.484375 C 53.253906 1.441406 52.929688 0.03125 53.109375 -1.75 C 53.546875 -5.820312 54.007812 -10.007812 54.5 -14.3125 C 54.988281 -18.625 55.3125 -22.9375 55.46875 -27.25 C 55.625 -31.5625 55.332031 -35.75 54.59375 -39.8125 C 54.46875 -40.550781 54.265625 -41.273438 53.984375 -41.984375 C 53.710938 -42.691406 53.546875 -43.414062 53.484375 -44.15625 C 52.804688 -43.414062 52.050781 -42.644531 51.21875 -41.84375 C 50.382812 -41.039062 49.753906 -40.300781 49.328125 -39.625 C 47.910156 -37.53125 46.816406 -35.328125 46.046875 -33.015625 C 45.273438 -30.710938 44.675781 -28.328125 44.25 -25.859375 C 44 -24.328125 43.347656 -23.160156 42.296875 -22.359375 C 41.253906 -21.554688 40.054688 -21.09375 38.703125 -20.96875 C 37.347656 -20.84375 36.023438 -21.023438 34.734375 -21.515625 C 33.441406 -22.015625 32.394531 -22.785156 31.59375 -23.828125 C 30.789062 -24.878906 30.484375 -26.175781 30.671875 -27.71875 C 30.796875 -29.375 30.898438 -31.03125 30.984375 -32.6875 C 31.078125 -34.351562 31.09375 -36.050781 31.03125 -37.78125 C 31.03125 -38.332031 31.046875 -39.113281 31.078125 -40.125 C 31.109375 -41.144531 31.078125 -42.132812 30.984375 -43.09375 C 30.898438 -44.050781 30.640625 -44.773438 30.203125 -45.265625 C 30.078125 -45.453125 30.046875 -45.601562 30.109375 -45.71875 C 29.929688 -45.664062 29.867188 -45.664062 29.921875 -45.71875 C 29.367188 -45.539062 28.832031 -44.988281 28.3125 -44.0625 C 27.789062 -43.132812 27.40625 -42.488281 27.15625 -42.125 C 26.476562 -41.007812 25.878906 -39.851562 25.359375 -38.65625 C 24.835938 -37.457031 24.359375 -36.242188 23.921875 -35.015625 C 21.890625 -29.523438 20.566406 -23.851562 19.953125 -18 C 19.335938 -12.15625 18.84375 -6.335938 18.46875 -0.546875 C 18.351562 1.234375 17.800781 2.660156 16.8125 3.734375 C 15.820312 4.816406 14.632812 5.523438 13.25 5.859375 C 11.863281 6.203125 10.492188 6.203125 9.140625 5.859375 C 7.785156 5.523438 6.660156 4.816406 5.765625 3.734375 C 4.878906 2.660156 4.5 1.234375 4.625 -0.546875 C 4.925781 -5.359375 5.289062 -10.195312 5.71875 -15.0625 C 6.15625 -19.925781 6.894531 -24.726562 7.9375 -29.46875 C 8.5625 -32.363281 9.378906 -35.378906 10.390625 -38.515625 C 11.410156 -41.660156 12.671875 -44.691406 14.171875 -47.609375 C 15.679688 -50.535156 17.515625 -53.046875 19.671875 -55.140625 C 21.703125 -57.179688 24.085938 -58.539062 26.828125 -59.21875 C 29.578125 -59.894531 32.257812 -59.832031 34.875 -59.03125 C 37.488281 -58.226562 39.660156 -56.535156 41.390625 -53.953125 C 41.441406 -53.828125 41.53125 -53.671875 41.65625 -53.484375 C 41.78125 -53.296875 41.875 -53.113281 41.9375 -52.9375 C 43.71875 -55.082031 45.671875 -56.785156 47.796875 -58.046875 C 49.921875 -59.316406 52.125 -59.875 54.40625 -59.71875 C 56.6875 -59.5625 59.023438 -58.4375 61.421875 -56.34375 C 63.578125 -54.5 65.175781 -52.253906 66.21875 -49.609375 C 67.269531 -46.960938 67.976562 -44.175781 68.34375 -41.25 C 68.71875 -38.320312 68.9375 -35.535156 69 -32.890625 Z M 69 -32.890625 "/></g></g></g><g fill="#ebddc9" fill-opacity="1"><g transform="translate(545.950851, 726.696743)"><g><path d="M 51.359375 -56.4375 C 52.835938 -54.039062 53.851562 -51.347656 54.40625 -48.359375 C 54.957031 -45.367188 55.203125 -42.347656 55.140625 -39.296875 C 55.085938 -36.253906 54.84375 -33.410156 54.40625 -30.765625 C 53.789062 -26.703125 52.53125 -22.851562 50.625 -19.21875 C 48.71875 -15.582031 46.160156 -12.441406 42.953125 -9.796875 C 39.867188 -7.265625 36.296875 -5.414062 32.234375 -4.25 C 28.171875 -3.082031 24.203125 -3.113281 20.328125 -4.34375 C 17.734375 -5.144531 15.484375 -6.46875 13.578125 -8.3125 C 11.671875 -10.15625 10.066406 -12.265625 8.765625 -14.640625 C 7.472656 -17.015625 6.519531 -19.429688 5.90625 -21.890625 C 5.164062 -24.597656 4.734375 -27.722656 4.609375 -31.265625 C 4.492188 -34.804688 4.742188 -38.425781 5.359375 -42.125 C 5.972656 -45.820312 6.988281 -49.269531 8.40625 -52.46875 C 9.820312 -55.664062 11.734375 -58.3125 14.140625 -60.40625 C 16.597656 -62.9375 19.550781 -64.722656 23 -65.765625 C 26.445312 -66.816406 29.988281 -67.171875 33.625 -66.828125 C 37.257812 -66.492188 40.644531 -65.445312 43.78125 -63.6875 C 46.925781 -61.9375 49.453125 -59.519531 51.359375 -56.4375 Z M 34.546875 -20.5 C 36.640625 -22.476562 38.191406 -24.773438 39.203125 -27.390625 C 40.222656 -30.003906 40.851562 -32.742188 41.09375 -35.609375 C 41.34375 -38.472656 41.285156 -41.257812 40.921875 -43.96875 C 40.554688 -46.675781 39.492188 -48.890625 37.734375 -50.609375 C 35.984375 -52.335938 33.660156 -53.171875 30.765625 -53.109375 C 29.160156 -53.109375 27.601562 -52.707031 26.09375 -51.90625 C 24.582031 -51.113281 23.335938 -50.070312 22.359375 -48.78125 C 21.242188 -47.238281 20.441406 -45.390625 19.953125 -43.234375 C 19.460938 -41.078125 19.09375 -39.078125 18.84375 -37.234375 C 18.289062 -33.097656 18.503906 -29.03125 19.484375 -25.03125 C 19.796875 -23.863281 20.210938 -22.691406 20.734375 -21.515625 C 21.253906 -20.347656 22.007812 -19.394531 23 -18.65625 C 24.601562 -17.488281 26.4375 -17.070312 28.5 -17.40625 C 30.5625 -17.75 32.363281 -18.566406 33.90625 -19.859375 C 34.082031 -20.046875 34.296875 -20.257812 34.546875 -20.5 Z M 34.546875 -20.5 "/></g></g></g><g fill="#ebddc9" fill-opacity="1"><g transform="translate(605.713225, 726.696743)"><g><path d="M 52.5625 -8.6875 C 53.601562 -7.207031 54.03125 -5.804688 53.84375 -4.484375 C 53.664062 -3.160156 53.082031 -2.003906 52.09375 -1.015625 C 51.113281 -0.0234375 49.929688 0.664062 48.546875 1.0625 C 47.160156 1.457031 45.742188 1.457031 44.296875 1.0625 C 42.847656 0.664062 41.597656 -0.238281 40.546875 -1.65625 C 37.773438 -5.476562 34.679688 -8.988281 31.265625 -12.1875 C 27.847656 -15.394531 24.171875 -18.289062 20.234375 -20.875 C 19.921875 -17.238281 19.625 -13.585938 19.34375 -9.921875 C 19.070312 -6.265625 18.78125 -2.617188 18.46875 1.015625 C 18.351562 2.796875 17.785156 4.207031 16.765625 5.25 C 15.742188 6.300781 14.523438 7.007812 13.109375 7.375 C 11.703125 7.75 10.332031 7.765625 9 7.421875 C 7.675781 7.085938 6.582031 6.378906 5.71875 5.296875 C 4.863281 4.222656 4.5 2.796875 4.625 1.015625 C 5.175781 -5.691406 5.601562 -12.523438 5.90625 -19.484375 C 6.21875 -26.441406 7.050781 -33.25 8.40625 -39.90625 C 9.082031 -43.351562 10.34375 -46.675781 12.1875 -49.875 C 14.039062 -53.082031 16.398438 -55.734375 19.265625 -57.828125 C 22.128906 -59.921875 25.46875 -61.0625 29.28125 -61.25 C 31.925781 -61.363281 34.4375 -60.867188 36.8125 -59.765625 C 39.1875 -58.660156 41.203125 -57.117188 42.859375 -55.140625 C 44.523438 -53.171875 45.648438 -50.953125 46.234375 -48.484375 C 46.816406 -46.023438 46.675781 -43.472656 45.8125 -40.828125 C 44.957031 -38.179688 43.554688 -35.6875 41.609375 -33.34375 C 39.671875 -31.007812 37.441406 -28.976562 34.921875 -27.25 C 41.503906 -21.894531 47.382812 -15.707031 52.5625 -8.6875 Z M 27.8125 -39.4375 C 28.175781 -39.8125 28.789062 -40.382812 29.65625 -41.15625 C 30.519531 -41.925781 31.289062 -42.738281 31.96875 -43.59375 C 32.644531 -44.457031 32.921875 -45.140625 32.796875 -45.640625 C 32.546875 -46.929688 32.066406 -47.632812 31.359375 -47.75 C 30.648438 -47.875 29.847656 -47.675781 28.953125 -47.15625 C 28.066406 -46.632812 27.191406 -45.925781 26.328125 -45.03125 C 25.460938 -44.132812 24.722656 -43.285156 24.109375 -42.484375 C 23.492188 -41.691406 23.09375 -41.109375 22.90625 -40.734375 C 22.414062 -39.316406 21.984375 -37.78125 21.609375 -36.125 C 22.847656 -36.300781 23.957031 -36.679688 24.9375 -37.265625 C 25.925781 -37.859375 26.882812 -38.582031 27.8125 -39.4375 Z M 27.8125 -39.4375 "/></g></g></g><g fill="#ebddc9" fill-opacity="1"><g transform="translate(664.182445, 726.696743)"><g><path d="M 8.78125 -56.90625 C 8.957031 -58.625 9.566406 -60.003906 10.609375 -61.046875 C 11.660156 -62.097656 12.894531 -62.804688 14.3125 -63.171875 C 15.726562 -63.546875 17.113281 -63.5625 18.46875 -63.21875 C 19.820312 -62.882812 20.898438 -62.175781 21.703125 -61.09375 C 22.503906 -60.019531 22.8125 -58.625 22.625 -56.90625 C 20.84375 -40.21875 19.457031 -23.5 18.46875 -6.75 C 18.351562 -4.957031 17.800781 -3.519531 16.8125 -2.4375 C 15.820312 -1.363281 14.632812 -0.65625 13.25 -0.3125 C 11.863281 0.0195312 10.492188 0.0195312 9.140625 -0.3125 C 7.785156 -0.65625 6.660156 -1.363281 5.765625 -2.4375 C 4.878906 -3.519531 4.5 -4.957031 4.625 -6.75 C 5.601562 -23.5 6.988281 -40.21875 8.78125 -56.90625 Z M 8.78125 -56.90625 "/></g></g></g><g fill="#ebddc9" fill-opacity="1"><g transform="translate(691.523536, 726.696743)"><g><path d="M 38.515625 -19.484375 C 40.304688 -19.429688 41.738281 -18.910156 42.8125 -17.921875 C 43.894531 -16.929688 44.601562 -15.742188 44.9375 -14.359375 C 45.28125 -12.972656 45.28125 -11.601562 44.9375 -10.25 C 44.601562 -8.894531 43.894531 -7.769531 42.8125 -6.875 C 41.738281 -5.988281 40.304688 -5.578125 38.515625 -5.640625 C 34.328125 -5.816406 30.140625 -5.796875 25.953125 -5.578125 C 21.765625 -5.367188 17.578125 -4.925781 13.390625 -4.25 C 12.097656 -4.0625 10.742188 -4.195312 9.328125 -4.65625 C 7.910156 -5.125 6.722656 -5.878906 5.765625 -6.921875 C 4.816406 -7.972656 4.46875 -9.332031 4.71875 -11 C 5.757812 -19.488281 6.910156 -27.984375 8.171875 -36.484375 C 9.429688 -44.984375 10.800781 -53.484375 12.28125 -61.984375 C 12.46875 -63.023438 12.835938 -63.914062 13.390625 -64.65625 C 13.890625 -65.519531 14.597656 -66.242188 15.515625 -66.828125 C 16.441406 -67.410156 17.582031 -67.734375 18.9375 -67.796875 C 25.582031 -67.984375 32.234375 -67.863281 38.890625 -67.4375 C 40.671875 -67.3125 42.097656 -66.738281 43.171875 -65.71875 C 44.253906 -64.707031 44.960938 -63.507812 45.296875 -62.125 C 45.640625 -60.738281 45.640625 -59.367188 45.296875 -58.015625 C 44.960938 -56.660156 44.253906 -55.550781 43.171875 -54.6875 C 42.097656 -53.820312 40.671875 -53.453125 38.890625 -53.578125 C 34.328125 -53.890625 29.675781 -54.046875 24.9375 -54.046875 C 24.632812 -52.253906 24.328125 -50.460938 24.015625 -48.671875 C 23.710938 -46.890625 23.4375 -45.109375 23.1875 -43.328125 C 25.707031 -43.265625 28.140625 -43.109375 30.484375 -42.859375 C 32.328125 -42.671875 33.941406 -41.976562 35.328125 -40.78125 C 36.710938 -39.582031 37.40625 -37.96875 37.40625 -35.9375 C 37.40625 -34.757812 37.082031 -33.617188 36.4375 -32.515625 C 35.789062 -31.410156 34.941406 -30.519531 33.890625 -29.84375 C 32.847656 -29.164062 31.710938 -28.882812 30.484375 -29 C 27.335938 -29.3125 24.195312 -29.46875 21.0625 -29.46875 C 20.8125 -27.738281 20.5625 -25.976562 20.3125 -24.1875 C 20.070312 -22.40625 19.828125 -20.65625 19.578125 -18.9375 C 22.722656 -19.25 25.863281 -19.445312 29 -19.53125 C 32.144531 -19.625 35.316406 -19.609375 38.515625 -19.484375 Z M 38.515625 -19.484375 "/></g></g></g><g fill="#ebddc9" fill-opacity="1"><g transform="translate(741.679583, 726.696743)"><g><path d="M 34.453125 -39.90625 C 37.898438 -37.5625 40.625 -34.507812 42.625 -30.75 C 44.632812 -27 45.421875 -23 44.984375 -18.75 C 44.554688 -15.050781 43.296875 -11.878906 41.203125 -9.234375 C 39.109375 -6.585938 36.535156 -4.523438 33.484375 -3.046875 C 30.429688 -1.566406 27.195312 -0.75 23.78125 -0.59375 C 20.363281 -0.445312 17.082031 -1.019531 13.9375 -2.3125 C 10.800781 -3.601562 8.15625 -5.695312 6 -8.59375 C 4.894531 -10.007812 4.429688 -11.378906 4.609375 -12.703125 C 4.796875 -14.023438 5.367188 -15.175781 6.328125 -16.15625 C 7.285156 -17.144531 8.472656 -17.835938 9.890625 -18.234375 C 11.304688 -18.640625 12.734375 -18.65625 14.171875 -18.28125 C 15.617188 -17.914062 16.867188 -17.023438 17.921875 -15.609375 C 18.410156 -14.929688 19.332031 -14.546875 20.6875 -14.453125 C 22.039062 -14.359375 23.394531 -14.421875 24.75 -14.640625 C 26.101562 -14.859375 27.0625 -15.085938 27.625 -15.328125 C 28.914062 -15.953125 29.882812 -16.863281 30.53125 -18.0625 C 31.175781 -19.257812 31.40625 -20.566406 31.21875 -21.984375 C 31.039062 -23.710938 30.425781 -25.128906 29.375 -26.234375 C 28.332031 -27.335938 27.085938 -28.304688 25.640625 -29.140625 C 24.191406 -29.972656 22.726562 -30.773438 21.25 -31.546875 C 19.769531 -32.316406 18.472656 -33.164062 17.359375 -34.09375 C 14.285156 -36.800781 12.410156 -39.738281 11.734375 -42.90625 C 11.054688 -46.082031 11.285156 -49.253906 12.421875 -52.421875 C 13.566406 -55.597656 15.335938 -58.476562 17.734375 -61.0625 C 20.140625 -63.644531 22.878906 -65.644531 25.953125 -67.0625 C 27.617188 -67.863281 29.160156 -68.078125 30.578125 -67.703125 C 31.992188 -67.335938 33.207031 -66.644531 34.21875 -65.625 C 35.238281 -64.613281 35.929688 -63.429688 36.296875 -62.078125 C 36.671875 -60.722656 36.609375 -59.410156 36.109375 -58.140625 C 35.617188 -56.878906 34.578125 -55.878906 32.984375 -55.140625 C 31.929688 -54.648438 30.710938 -53.972656 29.328125 -53.109375 C 27.941406 -52.253906 26.800781 -51.222656 25.90625 -50.015625 C 25.019531 -48.816406 24.851562 -47.476562 25.40625 -46 C 25.707031 -45.019531 26.425781 -44.175781 27.5625 -43.46875 C 28.707031 -42.757812 29.925781 -42.125 31.21875 -41.5625 C 32.507812 -41.007812 33.585938 -40.457031 34.453125 -39.90625 Z M 34.453125 -39.90625 "/></g></g></g><g clip-path="url(#1ea4b99f59)"><g clip-path="url(#2b3c6f7eff)"><g clip-path="url(#a4548a2e37)"><path fill="#ebddc9" d="M 80.03125 655.703125 L 106.335938 660.058594 L 101.976562 686.363281 L 75.675781 682.003906 Z M 80.03125 655.703125 " fill-opacity="1" fill-rule="nonzero"/></g></g></g><g clip-path="url(#50c412e024)"><g clip-path="url(#761aec4e7b)"><g clip-path="url(#c2c5245fb9)"><path fill="#ebddc9" d="M 73.851562 714.921875 L 88.566406 715.542969 L 88.160156 725.082031 L 73.445312 724.457031 Z M 73.851562 714.921875 " fill-opacity="1" fill-rule="nonzero"/></g></g></g><g clip-path="url(#300c0664ca)"><g clip-path="url(#15425dea46)"><g clip-path="url(#e80c52e1b5)"><path fill="#ebddc9" d="M 76.234375 706.046875 L 90.921875 707.117188 L 90.230469 716.636719 L 75.542969 715.566406 Z M 76.234375 706.046875 " fill-opacity="1" fill-rule="nonzero"/></g></g></g><g clip-path="url(#81bca02f5d)"><g clip-path="url(#0fd8308978)"><path fill="#849f4f" d="M 87.164062 667.191406 L 94.84375 667.191406 L 94.84375 674.871094 L 87.164062 674.871094 Z M 87.164062 667.191406 " fill-opacity="1" fill-rule="nonzero"/></g></g><g clip-path="url(#b1420a2d9f)"><g clip-path="url(#2937f23c7b)"><path fill="#ebddc9" d="M 575.230469 686.363281 L 585.605469 686.363281 L 585.605469 696.738281 L 575.230469 696.738281 Z M 575.230469 686.363281 " fill-opacity="1" fill-rule="nonzero"/></g></g><g clip-path="url(#2554b43e53)"><g clip-path="url(#e05f0be0b9)"><g clip-path="url(#ffeb7ab4f9)"><path fill="#ebddc9" d="M 656.652344 720.246094 L 696.082031 721.527344 L 695.726562 732.570312 L 656.296875 731.289062 Z M 656.652344 720.246094 " fill-opacity="1" fill-rule="nonzero"/></g></g></g><g clip-path="url(#d8a12874c5)"><g clip-path="url(#7297ad01f4)"><g clip-path="url(#04d875daf3)"><path fill="#ebddc9" d="M 665.269531 649.953125 L 700.121094 651.027344 L 699.714844 664.246094 L 664.863281 663.171875 Z M 665.269531 649.953125 " fill-opacity="1" fill-rule="nonzero"/></g></g></g><g clip-path="url(#9eb8c8b760)"><g clip-path="url(#7f2f06c1ea)"><g clip-path="url(#d695c0df3c)"><path fill="#ebddc9" d="M 179.542969 683.597656 L 188.914062 683.210938 L 189.300781 692.582031 L 179.929688 692.96875 Z M 179.542969 683.597656 " fill-opacity="1" fill-rule="nonzero"/></g></g></g><g clip-path="url(#1e99763735)"><g clip-path="url(#047a5bad64)"><g clip-path="url(#f699eaf165)"><path fill="#ebddc9" d="M 182.5 684.847656 L 186.246094 685.050781 L 185.527344 698.261719 L 181.78125 698.054688 Z M 182.5 684.847656 " fill-opacity="1" fill-rule="nonzero"/></g></g></g><g fill="#ebddc9" fill-opacity="1"><g transform="translate(202.286979, 680.042921)"><g><path d="M -28.375 -18.203125 C -27.570312 -19.816406 -26.628906 -21.328125 -25.546875 -22.734375 C -24.460938 -24.148438 -23.125 -25.363281 -21.53125 -26.375 C -19.769531 -27.457031 -17.859375 -28.140625 -15.796875 -28.421875 C -13.734375 -28.710938 -11.75 -28.460938 -9.84375 -27.671875 C -8.1875 -26.992188 -6.757812 -26.003906 -5.5625 -24.703125 C -4.375 -23.410156 -3.410156 -21.976562 -2.671875 -20.40625 C -1.859375 -18.632812 -1.351562 -16.6875 -1.15625 -14.5625 C -0.96875 -12.4375 -0.84375 -10.421875 -0.78125 -8.515625 C -0.757812 -7.960938 -0.765625 -7.414062 -0.796875 -6.875 C -0.828125 -6.34375 -0.941406 -5.84375 -1.140625 -5.375 C -1.453125 -4.71875 -1.953125 -4.210938 -2.640625 -3.859375 C -3.335938 -3.515625 -4.03125 -3.457031 -4.71875 -3.6875 C -12.507812 -6.113281 -20.273438 -8.738281 -28.015625 -11.5625 C -28.890625 -11.863281 -29.425781 -12.328125 -29.625 -12.953125 C -29.820312 -13.585938 -29.832031 -14.28125 -29.65625 -15.03125 C -29.476562 -15.78125 -29.226562 -16.484375 -28.90625 -17.140625 C -28.738281 -17.503906 -28.5625 -17.859375 -28.375 -18.203125 Z M -11.34375 -20.859375 C -12.414062 -21.585938 -13.457031 -21.945312 -14.46875 -21.9375 C -15.488281 -21.9375 -16.453125 -21.675781 -17.359375 -21.15625 C -18.273438 -20.632812 -19.097656 -19.945312 -19.828125 -19.09375 C -20.566406 -18.25 -21.179688 -17.351562 -21.671875 -16.40625 C -16.992188 -14.757812 -12.359375 -13.191406 -7.765625 -11.703125 C -7.804688 -12.867188 -7.90625 -14.007812 -8.0625 -15.125 C -8.226562 -16.25 -8.5625 -17.300781 -9.0625 -18.28125 C -9.570312 -19.257812 -10.332031 -20.117188 -11.34375 -20.859375 Z M -11.34375 -20.859375 "/></g></g></g><g clip-path="url(#3561c7252a)"><g clip-path="url(#545cfd2142)"><path fill="#ebddc9" d="M 497.832031 718.472656 L 504.4375 718.472656 L 504.4375 725.078125 L 497.832031 725.078125 Z M 497.832031 718.472656 " fill-opacity="1" fill-rule="nonzero"/></g></g><g clip-path="url(#8d739cae69)"><g clip-path="url(#50c717adf2)"><path fill="#ebddc9" d="M 509.6875 719.222656 L 516.296875 719.222656 L 516.296875 725.828125 L 509.6875 725.828125 Z M 509.6875 719.222656 " fill-opacity="1" fill-rule="nonzero"/></g></g><g fill="#ebddc9" fill-opacity="1"><g transform="translate(704.502914, 657.878612)"><g><path d="M -39.4375 33.421875 C -39.59375 28.347656 -39.71875 23.269531 -39.8125 18.1875 C -39.914062 13.113281 -40.046875 8.039062 -40.203125 2.96875 C -40.253906 1.5 -39.898438 0.320312 -39.140625 -0.5625 C -38.378906 -1.457031 -37.4375 -2.039062 -36.3125 -2.3125 C -35.195312 -2.59375 -34.066406 -2.582031 -32.921875 -2.28125 C -31.785156 -1.976562 -30.820312 -1.394531 -30.03125 -0.53125 C -29.25 0.332031 -28.832031 1.5 -28.78125 2.96875 C -28.726562 4.488281 -28.6875 6.007812 -28.65625 7.53125 C -28.632812 9.0625 -28.597656 10.585938 -28.546875 12.109375 L -17.125 12.484375 C -16.71875 10.609375 -16.335938 8.707031 -15.984375 6.78125 C -15.628906 4.851562 -15.273438 2.921875 -14.921875 0.984375 C -14.671875 -0.429688 -14.097656 -1.46875 -13.203125 -2.125 C -12.316406 -2.789062 -11.289062 -3.125 -10.125 -3.125 C -8.957031 -3.125 -7.851562 -2.816406 -6.8125 -2.203125 C -5.769531 -1.597656 -4.957031 -0.765625 -4.375 0.296875 C -3.789062 1.367188 -3.628906 2.613281 -3.890625 4.03125 C -4.796875 9.007812 -5.820312 13.929688 -6.96875 18.796875 C -8.113281 23.671875 -9.722656 28.421875 -11.796875 33.046875 C -12.816406 35.328125 -14.113281 37.785156 -15.6875 40.421875 C -17.257812 43.066406 -19.046875 45.492188 -21.046875 47.703125 C -23.054688 49.910156 -25.28125 51.546875 -27.71875 52.609375 C -30 53.578125 -31.847656 53.753906 -33.265625 53.140625 C -34.691406 52.535156 -35.8125 51.429688 -36.625 49.828125 C -37.4375 48.234375 -38.03125 46.421875 -38.40625 44.390625 C -38.789062 42.359375 -39.046875 40.351562 -39.171875 38.375 C -39.296875 36.394531 -39.382812 34.742188 -39.4375 33.421875 Z M -20.703125 25.046875 C -20.660156 24.847656 -20.597656 24.644531 -20.515625 24.4375 C -20.441406 24.238281 -20.351562 24.035156 -20.25 23.828125 C -21.625 23.773438 -22.96875 23.722656 -24.28125 23.671875 C -25.601562 23.628906 -26.925781 23.582031 -28.25 23.53125 C -28.195312 25.15625 -28.15625 26.789062 -28.125 28.4375 C -28.101562 30.082031 -28.066406 31.742188 -28.015625 33.421875 C -27.960938 34.085938 -27.9375 34.785156 -27.9375 35.515625 C -27.9375 36.253906 -27.9375 37.003906 -27.9375 37.765625 C -27.082031 36.753906 -26.347656 35.765625 -25.734375 34.796875 C -24.722656 33.273438 -23.796875 31.703125 -22.953125 30.078125 C -22.117188 28.453125 -21.367188 26.773438 -20.703125 25.046875 Z M -20.703125 25.046875 "/></g></g></g></svg>